<svg width="24" height="19" viewBox="0 0 24 19" fill="none" xmlns="http://www.w3.org/2000/svg">
<g filter="url(#filter0_d_5190_5231)">
<path d="M18.261 1.1824C20.2939 4.23337 21.2978 7.67479 20.9225 11.6366C20.9209 11.6534 20.9124 11.6688 20.8989 11.6789C19.3594 12.8328 17.8679 13.533 16.3973 13.9974C16.3859 14.001 16.3736 14.0008 16.3623 13.9969C16.3509 13.993 16.3411 13.9855 16.3341 13.9756C15.9943 13.4931 15.6856 12.9844 15.4152 12.4501C15.3997 12.4187 15.4138 12.3808 15.4458 12.3684C15.9361 12.1798 16.4023 11.9538 16.8507 11.6862C16.886 11.6651 16.8883 11.6134 16.8556 11.5886C16.7605 11.5165 16.6662 11.4407 16.576 11.3649C16.5591 11.3509 16.5364 11.3482 16.5172 11.3576C13.606 12.7299 10.4168 12.7299 7.47113 11.3576C7.452 11.3489 7.42928 11.3518 7.41285 11.3656C7.32285 11.4414 7.22835 11.5165 7.13408 11.5886C7.10145 11.6134 7.10415 11.6651 7.1397 11.6862C7.58813 11.9488 8.05432 12.1798 8.54392 12.3693C8.57565 12.3817 8.59072 12.4187 8.57497 12.4501C8.31037 12.985 8.00167 13.4938 7.65563 13.9763C7.64055 13.9958 7.6158 14.0048 7.5924 13.9974C6.12878 13.533 4.63726 12.8328 3.09781 11.6789C3.08498 11.6688 3.07576 11.6527 3.07441 11.636C2.76076 8.20901 3.39998 4.73911 5.73345 1.18171C5.73908 1.1723 5.74763 1.16495 5.75753 1.16059C6.9057 0.622692 8.13577 0.226966 9.42142 0.000968189C9.44482 -0.00270657 9.46822 0.00831771 9.48037 0.0294476C9.63922 0.316538 9.8208 0.684703 9.94365 0.985575C11.2988 0.774276 12.6751 0.774276 14.0587 0.985575C14.1815 0.691134 14.3568 0.316538 14.515 0.0294476C14.5206 0.0189653 14.5293 0.0105674 14.5399 0.00545295C14.5505 0.000338472 14.5624 -0.00123114 14.5739 0.000968189C15.8602 0.227655 17.0903 0.623381 18.2376 1.16059C18.2477 1.16495 18.256 1.1723 18.261 1.1824ZM10.6326 7.69822C10.6468 6.68513 9.92317 5.84682 9.01485 5.84682C8.11395 5.84682 7.39733 6.67778 7.39733 7.69822C7.39733 8.71842 8.12812 9.54938 9.01485 9.54938C9.91597 9.54938 10.6326 8.71842 10.6326 7.69822ZM16.6135 7.69822C16.6277 6.68513 15.9041 5.84682 14.996 5.84682C14.0949 5.84682 13.3783 6.67778 13.3783 7.69822C13.3783 8.71842 14.1091 9.54938 14.996 9.54938C15.9041 9.54938 16.6135 8.71842 16.6135 7.69822Z" fill="white"/>
</g>
<defs>
<filter id="filter0_d_5190_5231" x="-1" y="0" width="26" height="22" filterUnits="userSpaceOnUse" color-interpolation-filters="sRGB">
<feFlood flood-opacity="0" result="BackgroundImageFix"/>
<feColorMatrix in="SourceAlpha" type="matrix" values="0 0 0 0 0 0 0 0 0 0 0 0 0 0 0 0 0 0 127 0" result="hardAlpha"/>
<feOffset dy="4"/>
<feGaussianBlur stdDeviation="2"/>
<feComposite in2="hardAlpha" operator="out"/>
<feColorMatrix type="matrix" values="0 0 0 0 0 0 0 0 0 0 0 0 0 0 0 0 0 0 0.25 0"/>
<feBlend mode="normal" in2="BackgroundImageFix" result="effect1_dropShadow_5190_5231"/>
<feBlend mode="normal" in="SourceGraphic" in2="effect1_dropShadow_5190_5231" result="shape"/>
</filter>
</defs>
</svg>
