<svg width="574" height="574" viewBox="0 0 574 574" fill="none" xmlns="http://www.w3.org/2000/svg">
<g filter="url(#filter0_d_942_3821)">
<path d="M287.183 506.17C410.371 506.17 510.235 406.306 510.235 283.117C510.235 159.929 410.371 60.0652 287.183 60.0652C163.994 60.0652 64.1304 159.929 64.1304 283.117C64.1304 406.306 163.994 506.17 287.183 506.17Z" fill="url(#paint0_linear_942_3821)"/>
<path d="M186.744 264.856C183.613 272.226 181.331 279.856 180.287 287.813C179.57 293.031 179.244 298.314 179.765 303.662C180.026 306.205 180.287 308.749 180.874 311.227C181.005 311.684 181.005 312.205 181.07 312.792C180.809 312.662 180.613 312.662 180.548 312.597C175.657 305.292 171.939 297.466 169.852 288.857C167.83 280.639 167.308 272.291 168.287 263.812C169.2 255.79 171.548 248.225 175.396 241.181C177.287 237.724 179.374 234.463 181.983 231.463C182.179 231.267 182.309 230.941 182.57 230.55C181.07 230.615 179.961 231.267 178.787 231.789C178.005 232.115 177.287 232.441 176.57 232.833C175.004 233.681 173.374 234.529 171.874 235.507C170.765 236.224 169.722 237.007 168.743 237.789C167.7 238.572 166.721 239.42 165.743 240.333C164.765 241.246 163.917 242.159 163.069 243.203C162.221 244.181 161.439 245.225 160.656 246.333C159.873 247.377 159.221 248.486 158.504 249.594C157.852 250.703 157.33 251.877 156.547 253.247C156.352 252.725 156.221 252.529 156.221 252.334C156.025 250.507 156.612 222.071 161.113 210.267C164.569 201.136 169.722 193.049 176.57 186.005C180.352 182.092 184.592 178.765 189.222 175.896C190.331 175.178 159.613 186.592 158.96 187.244C159.091 186.592 170.374 166.765 175.396 160.83C180.548 154.699 186.222 149.156 192.418 144.068C204.158 134.481 217.071 127.111 231.42 122.024C239.703 119.089 248.181 116.872 256.855 115.437C265.334 114.002 273.943 113.546 282.552 113.546C284.444 113.546 286.27 113.546 288.096 113.546C288.226 113.937 288.096 114.133 287.835 114.198C282.552 116.089 278.508 119.546 274.856 123.655C273.16 125.546 271.595 127.568 270.16 129.655C268.53 132.068 264.747 138.003 264.421 137.807C258.16 133.633 251.247 132.068 243.811 132.394C235.985 132.72 228.42 134.351 221.05 137.09C216.093 138.916 211.267 141.134 206.701 143.808C206.44 143.938 206.18 144.134 205.919 144.329C205.853 144.395 205.788 144.525 205.593 144.786C207.941 144.199 210.093 143.612 212.375 143.221C214.658 142.764 216.941 142.503 219.224 142.308C221.506 142.112 223.854 142.047 226.137 142.047C228.354 142.047 230.637 142.177 232.855 142.438C235.137 142.699 237.42 143.155 239.637 143.612C241.855 144.068 244.072 144.655 246.551 145.699C245.768 145.96 245.507 146.09 245.246 146.155C240.42 147.134 235.985 149.09 231.615 151.243C226.072 153.982 220.919 157.373 216.093 161.221C211.201 165.134 206.832 169.569 202.853 174.331C198.027 180.005 193.983 186.201 190.331 192.657C189.94 193.375 189.548 194.092 189.222 194.81C187.461 198.592 196.723 191.027 204.223 184.896C211.462 178.961 219.484 174.2 228.159 170.548C236.311 167.156 244.79 164.874 253.529 163.83C258.812 163.178 264.095 163.047 269.378 163.374C269.573 163.374 269.704 163.439 269.899 163.504C269.965 163.961 269.639 164.026 269.378 164.156C263.443 166.635 257.964 169.896 252.681 173.613C245.898 178.374 239.637 183.853 234.159 190.048C230.572 194.092 227.18 198.331 224.245 202.897C218.506 211.767 214.332 221.289 211.658 231.463C210.484 236.029 209.441 240.659 208.984 245.355C208.201 252.399 207.94 259.377 208.593 266.421C208.984 271.052 209.767 275.552 210.875 280.052C211.332 281.943 211.854 283.77 212.375 285.596C212.897 285.53 212.702 278.226 213.093 275.161C214.071 268.247 215.767 261.595 218.637 255.268C220.332 251.486 222.55 248.094 224.963 244.703C225.093 244.572 230.833 238.116 230.833 238.311C230.376 240.985 231.485 285.27 266.704 323.097C266.704 315.271 262.334 286.444 262.79 279.4C263.312 270.986 264.682 267.465 268.008 259.703C271.073 252.464 275.182 245.877 280.661 240.268C284.574 236.289 280.465 214.506 285.617 212.223C288.226 211.049 311.053 240.92 331.924 219.397C335.511 218.158 342.424 218.289 345.62 216.136C347.642 214.832 345.62 205.31 342.098 196.049C338.511 186.461 330.293 179.679 320.51 176.809C320.054 176.678 319.793 176.483 319.923 176.157C320.119 175.439 320.445 174.983 321.097 174.591C325.402 172.048 329.641 169.439 333.88 166.895C334.663 166.439 335.38 165.852 336.163 165.395C336.75 165.069 337.206 164.417 337.272 163.765C337.663 160.895 343.859 123.263 344.381 120.068C344.707 118.176 310.466 154.308 309.684 155.482C309.879 155.743 310.14 155.612 310.336 155.482C314.053 153.525 317.771 151.504 321.554 149.547C324.293 148.112 327.163 146.808 329.967 145.438C330.163 145.373 330.424 145.438 330.75 145.438C330.554 145.829 330.489 146.09 330.358 146.351C327.489 151.243 324.619 156.134 321.684 160.96C319.467 164.613 317.184 168.135 314.575 171.461C313.532 172.765 312.488 174.07 311.379 175.374C310.14 176.874 308.64 178.113 307.01 179.092C302.705 181.7 298.466 181.505 294.357 178.831C290.965 176.613 288.291 173.613 286.335 170.026C284.9 167.417 284.313 164.417 284.77 161.482C285.357 157.373 287.183 153.851 289.205 150.33C291.748 146.025 294.813 142.112 298.074 138.329C303.749 131.742 310.075 125.872 316.597 120.198C322.467 115.111 328.663 110.415 334.924 105.784C341.25 101.154 347.707 96.7188 354.424 92.6099C354.751 92.4143 354.229 102.067 353.642 106.632C352.794 113.285 351.946 119.937 351.163 126.655C350.642 131.22 350.25 135.851 349.859 140.416C349.663 142.568 349.533 144.786 349.337 146.938C348.685 153.591 350.511 159.656 353.903 165.265C355.664 168.2 357.751 170.939 359.968 173.548C362.968 177.135 366.099 180.592 369.164 184.113C372.099 187.44 374.904 190.831 377.578 194.418C380.447 198.331 383.121 202.375 384.752 207.006C385.86 210.071 386.447 213.267 386.447 216.528C386.447 218.419 386.382 220.245 386.382 222.137C386.317 226.702 387.687 230.811 390.165 234.659C392.056 237.529 394.339 240.007 396.687 242.42C402.622 248.616 408.818 254.551 415.34 260.16C421.079 265.117 426.884 270.008 432.688 274.9C433.732 275.748 434.841 276.53 435.949 277.378C436.341 277.639 436.667 278.03 436.993 278.356C436.667 278.943 436.145 279.074 435.689 279.139C433.145 279.791 430.601 280.443 428.058 280.965C425.775 281.422 423.427 281.748 421.079 282.139C420.427 282.269 419.775 282.4 418.992 282.596C418.666 284.944 418.927 287.226 419.384 289.509C419.84 291.726 420.818 293.748 421.992 295.64C423.166 297.596 424.797 299.227 426.427 300.988C425.188 302.096 423.949 303.009 422.579 303.727C418.992 305.749 415.144 307.184 411.035 307.901C408.557 308.357 406.144 308.684 403.6 308.684C402.557 308.684 401.709 309.01 400.992 309.792C398.187 312.662 394.6 314.749 390.556 315.075C384.034 315.662 377.773 314.879 371.838 312.01C368.903 310.575 365.968 309.14 363.099 307.705C353.838 302.944 344.185 298.901 334.337 295.574C330.163 294.205 325.989 292.966 321.619 292.379C315.423 291.531 309.292 291.857 303.618 294.857C295.987 298.901 291.487 305.227 290.705 313.901C290.509 315.858 290.835 317.814 291.292 319.771C291.944 322.575 293.053 325.184 294.487 327.663C297.814 333.337 302.053 338.228 307.01 342.467C318.554 352.316 331.663 359.425 346.076 363.925C347.446 364.381 348.816 364.773 350.185 365.034C350.511 365.099 350.772 365.229 351.424 365.555C350.837 365.751 350.511 365.947 350.185 366.012C345.033 366.664 339.946 367.577 334.793 367.968C327.097 368.621 319.336 368.49 311.64 367.642C301.596 366.534 291.879 364.251 282.552 360.533C275.834 357.859 269.378 354.598 263.312 350.685C257.834 347.163 226.202 337.315 260.703 363.86C260.899 363.99 261.03 364.186 261.356 364.577C260.769 364.577 260.508 364.577 260.247 364.512C250.725 363.012 241.79 359.946 233.311 355.511C223.919 350.555 215.767 344.098 208.919 336.076C201.419 327.336 196.331 317.293 193.657 306.075C192.222 300.075 191.636 294.074 191.636 287.944C191.57 282.791 190.657 255.79 186.744 264.856ZM327.358 270.008C327.228 270.595 327.423 270.986 327.619 271.443C328.989 274.443 330.293 277.443 331.728 280.443C332.38 281.813 333.098 283.052 333.88 284.357C335.38 286.835 337.402 288.857 339.946 290.292C341.054 290.944 342.228 291.596 343.402 292.183C349.337 295.053 355.272 297.857 361.273 300.662C365.251 302.488 369.229 304.183 373.338 305.553C377.838 307.118 382.404 307.575 387.165 307.053C387.621 306.988 388.013 306.988 388.469 306.923C388.926 306.857 389.382 306.923 390.1 306.662C389.187 306.336 388.535 306.075 387.948 305.879C386.513 305.357 385.013 304.901 383.578 304.249C379.078 302.357 374.969 299.814 370.99 297.009C366.099 293.553 361.664 289.574 357.229 285.596C354.424 283.052 351.555 280.574 348.489 278.356C342.685 274.182 336.293 271.378 329.25 270.139C328.597 270.008 328.01 269.812 327.358 270.008ZM370.795 228.202C368.969 224.941 366.49 222.332 363.425 220.18C359.577 217.506 355.338 215.55 350.968 213.919C348.75 213.136 355.99 230.615 364.468 232.572C367.077 233.224 371.903 230.224 370.795 228.202Z" fill="white"/>
<path d="M445.015 125.35C422.84 103.176 396.883 86.2836 368.512 75.1963C367.142 74.6745 365.838 74.1527 364.468 73.6962C340.076 64.6958 313.988 60 287.183 60C227.572 60 171.548 83.2183 129.35 125.35C87.2183 167.482 64 223.506 64 283.117C64 342.728 87.2183 398.752 129.35 440.95C171.482 483.082 227.572 506.3 287.183 506.3C346.794 506.3 402.818 483.082 445.015 440.95C487.147 398.818 510.365 342.728 510.365 283.117C510.365 223.506 487.147 167.482 445.015 125.35ZM106.85 374.425L152.503 311.162L150.547 340.511L130.981 357.794L106.85 374.425ZM135.546 390.73L140.112 352.577L157.199 419.101L135.546 390.73ZM164.895 359.751L148.59 357.794L181.852 348.011L164.895 359.751ZM256.855 473.886L249.029 441.928L231.42 430.841H249.029L243.811 392.361L262.725 439.319L256.855 473.886ZM215.767 451.711V423.014L238.594 383.23V404.1L215.767 451.711ZM314.445 404.557L368.577 392.556L349.468 410.948L314.445 404.557ZM344.315 432.732L369.621 397.122L366.425 426.601L328.858 469.385L344.315 432.732ZM335.119 467.69L357.294 448.124L387.1 456.472L335.119 467.69ZM425.775 368.556L421.601 339.989L443.645 362.425L454.472 401.818L425.775 368.556ZM487.734 327.141L449.906 288.661C449.841 289.313 440.254 301.77 440.254 301.77L432.884 308.423C431.188 309.988 429.362 311.292 427.275 312.466C422.71 315.075 417.818 316.836 412.666 317.749C410.709 318.075 408.427 318.467 406.013 318.597C401.774 322.249 396.622 324.532 391.339 325.054C389.708 325.184 388.078 325.315 386.513 325.315C379.73 325.315 373.338 323.88 367.534 321.141C364.729 319.771 361.794 318.336 358.533 316.706C349.533 312.14 340.337 308.227 331.076 305.162C327.815 304.053 323.967 302.879 320.119 302.357C318.553 302.162 317.119 302.031 315.814 302.031C312.749 302.031 310.271 302.618 307.988 303.792C303.096 306.336 300.748 309.858 300.292 315.075C300.227 315.597 300.357 316.51 300.683 317.749C301.14 319.575 301.857 321.401 302.835 323.032C305.444 327.532 308.966 331.641 313.271 335.359C323.51 344.163 377.969 366.664 377.969 366.664C377.969 366.664 359.251 378.665 324.684 378.339C319.988 378.273 315.227 378.078 310.597 377.556C300.096 376.382 289.987 373.969 280.53 370.447L285.683 375.73C285.683 375.73 249.094 376.708 228.746 364.316C218.637 358.186 209.114 351.468 201.484 342.598C197.244 337.706 193.722 332.424 190.853 326.75L177.939 321.988C175.004 321.075 173.309 319.314 172.396 317.88C166.591 309.075 160.33 290.879 160.265 290.813C158.047 290.748 109.458 315.336 109.458 315.336L78.218 309.075C77.1744 300.531 76.5875 291.857 76.5875 283.052C76.5875 166.961 170.309 72.9136 286.4 72.5222C307.792 72.457 328.402 75.5876 347.902 81.4574C349.402 81.9139 350.903 82.3704 352.403 82.8922C356.707 84.327 360.946 85.8271 365.186 87.5228C366.294 87.9794 367.338 88.4359 368.447 88.8924C444.297 120.785 497.647 195.788 497.647 283.117C497.647 297.335 496.213 311.162 493.539 324.597L487.734 327.141Z" fill="white"/>
</g>
<defs>
<filter id="filter0_d_942_3821" x="0.400002" y="0.400002" width="573.565" height="573.5" filterUnits="userSpaceOnUse" color-interpolation-filters="sRGB">
<feFlood flood-opacity="0" result="BackgroundImageFix"/>
<feColorMatrix in="SourceAlpha" type="matrix" values="0 0 0 0 0 0 0 0 0 0 0 0 0 0 0 0 0 0 127 0" result="hardAlpha"/>
<feOffset dy="4"/>
<feGaussianBlur stdDeviation="31.8"/>
<feComposite in2="hardAlpha" operator="out"/>
<feColorMatrix type="matrix" values="0 0 0 0 1 0 0 0 0 0.841333 0 0 0 0 0.533333 0 0 0 0.53 0"/>
<feBlend mode="normal" in2="BackgroundImageFix" result="effect1_dropShadow_942_3821"/>
<feBlend mode="normal" in="SourceGraphic" in2="effect1_dropShadow_942_3821" result="shape"/>
</filter>
<linearGradient id="paint0_linear_942_3821" x1="129.461" y1="125.396" x2="444.904" y2="440.839" gradientUnits="userSpaceOnUse">
<stop offset="0.00558659" stop-color="#D9CB00"/>
<stop offset="1" stop-color="#FF8717"/>
</linearGradient>
</defs>
</svg>
