<svg width="45" height="40" viewBox="0 0 45 40" fill="none" xmlns="http://www.w3.org/2000/svg">
<path d="M38.1289 20.7148C38.0045 20.6264 37.8884 20.5381 37.7722 20.4497C37.2661 20.0401 36.7517 19.6224 36.2457 19.2048C35.3994 18.506 34.5781 17.775 33.8065 17.004C33.5493 16.7389 33.2921 16.4738 33.0847 16.1686C32.811 15.759 32.6616 15.3172 32.6699 14.8353C32.6699 14.6345 32.6782 14.4417 32.6782 14.2409C32.6782 13.8955 32.6118 13.5501 32.4874 13.2289C32.3215 12.7791 32.056 12.3774 31.7656 11.9839C31.4338 11.5421 31.0687 11.1164 30.6871 10.7068C30.3718 10.3694 30.0648 10.016 29.7496 9.67062C29.509 9.3895 29.2767 9.10034 29.0776 8.78709C28.7042 8.19271 28.5051 7.54211 28.5715 6.83528C28.5964 6.60235 29.2269 1.70276 29.2269 1.6626C29.1771 1.68669 25.6097 3.4377 24.9626 3.98388C24.2408 4.58629 23.5439 5.2128 22.9216 5.91962C22.5649 6.32123 22.2247 6.7389 21.9427 7.19673C21.7518 7.52605 21.5693 7.85536 21.4864 8.23287C21.4034 8.59432 21.4449 8.93167 21.6191 9.26098C21.8348 9.64653 22.1252 9.98388 22.5151 10.2248C22.9714 10.506 23.436 10.5301 23.9089 10.2489C24.0914 10.1445 24.2574 10.016 24.3901 9.85536C24.5145 9.71882 24.6307 9.57424 24.7385 9.43769C25.0372 9.08428 26.5057 6.70677 26.5306 6.66661C26.4974 6.66661 26.4642 6.65858 26.4476 6.66661C26.1406 6.81119 24.2325 7.75898 24.2159 7.72685C24.2988 7.59834 28.1567 2.94774 28.1982 2.90758C28.1982 2.95577 27.2938 8.30516 27.2524 8.60235C27.2441 8.68267 27.2109 8.73086 27.1362 8.77906C27.0532 8.82725 25.3608 9.84733 25.3359 9.92765C25.2944 10.0803 25.2529 10.2329 25.1866 10.3775C25.004 10.763 24.7137 11.0762 24.3486 11.3092C24.0002 11.5421 23.6102 11.6947 23.212 11.8232C22.54 12.0481 21.8514 12.2489 21.196 12.522C20.5986 12.771 20.0345 13.0682 19.5035 13.4297C18.2922 14.257 21.9427 15.1807 23.0378 15.2851C23.2037 15.3011 23.3613 15.3333 23.5273 15.3654C23.5522 15.3734 23.6517 15.4216 23.6517 15.4216C23.6517 15.4216 23.4775 15.4457 23.4111 15.4538C23.0959 15.4859 22.7972 15.5823 22.5068 15.7027C21.9427 15.9437 21.4615 16.3052 21.03 16.7309C20.4244 17.3252 19.9764 18.0321 19.6363 18.8031C19.2795 19.6305 19.0721 20.4899 19.014 21.3895C18.9642 22.1365 19.0472 22.8674 19.2214 23.5983C19.3957 24.3292 19.6445 25.1405 19.5035 25.5582C15.6208 21.526 16.2928 15.6224 16.3426 15.3333C16.3509 15.3092 14.9073 16.7951 14.227 18.3132C13.9117 18.9879 13.7209 19.6947 13.6131 20.4337C13.5633 20.755 13.555 21.0843 13.5633 21.4056C13.5633 21.4297 13.5716 21.4537 13.5633 21.4859C13.555 21.5019 13.5882 21.5341 13.5301 21.5421C13.472 21.3493 13.4139 21.1566 13.3642 20.9477C13.2397 20.4658 13.1568 19.9919 13.1153 19.4939C13.0406 18.7469 13.0738 17.9999 13.1568 17.2449C13.2065 16.7469 13.3227 16.2489 13.4554 15.767C13.7541 14.6827 14.2104 13.6706 14.8409 12.7228C15.1645 12.2329 15.5378 11.7831 15.9361 11.3493C16.5417 10.6907 17.2303 10.1044 17.977 9.59833C18.5577 9.20476 19.1634 8.85135 19.8188 8.58629C19.8437 8.57022 19.8851 8.56219 19.8768 8.514C19.852 8.50597 19.8437 8.49793 19.8188 8.49793C19.238 8.4658 18.6573 8.47384 18.0765 8.54613C17.1141 8.65858 16.1767 8.89954 15.2806 9.26098C14.3266 9.64653 13.4388 10.1606 12.6424 10.7871C11.8127 11.4377 11.2652 11.4859 11.1158 11.6144C11.5224 10.9236 11.9621 10.265 12.493 9.66259C12.9328 9.15657 13.4139 8.68267 13.9532 8.265C14.4842 7.85536 15.0566 7.49392 15.6623 7.20476C16.1435 6.97183 17.222 6.64251 17.305 6.61038C17.0312 6.49793 16.7906 6.43368 16.5417 6.38549C16.3011 6.33729 16.0439 6.2891 15.795 6.25697C15.5544 6.23287 15.2972 6.21681 15.0566 6.21681C14.8077 6.21681 14.5506 6.22484 14.2934 6.24091C14.0445 6.265 13.7873 6.2891 13.5384 6.33729C13.2895 6.37745 13.0489 6.44171 12.7917 6.50597C12.8166 6.48187 12.8166 6.46581 12.8249 6.45777C12.8498 6.43368 12.883 6.41761 12.9079 6.40155C13.4139 6.12043 13.9449 5.87946 14.4925 5.68669C15.3055 5.39753 16.1352 5.22083 16.998 5.1887C17.8193 5.15657 18.5826 5.31721 19.2712 5.76701C19.3044 5.79111 21.8929 3.22083 21.8763 3.18067H21.2623C20.3166 3.18067 19.3625 3.22886 18.4333 3.38147C17.4792 3.53408 16.5417 3.76701 15.6291 4.08026C14.0445 4.62645 12.6258 5.40557 11.3315 6.43368C10.6512 6.97986 10.0207 7.56621 9.45656 8.21681C8.9007 8.85938 8.41121 9.53408 8.00468 10.265C7.88024 10.4819 7.65624 10.9638 7.64794 11.0361C7.72261 10.9638 9.49804 9.69472 10.3028 9.55817C10.6595 9.49392 11.0992 9.74291 10.9748 9.82323C10.4687 10.1285 9.99582 10.4819 9.581 10.8995C8.82603 11.6465 8.26187 12.514 7.88024 13.4859C7.38245 14.7469 7.19164 16.0481 7.2746 17.3975C7.2829 17.5903 7.30779 17.7831 7.33267 17.9758C7.33267 17.9999 7.34927 18.016 7.36586 18.0722C7.44882 17.9276 7.5069 17.7991 7.58157 17.6867C7.66453 17.5662 7.7309 17.4537 7.82216 17.3413C7.90513 17.2208 7.99639 17.1084 8.08765 17.004C8.17891 16.8915 8.27847 16.7951 8.38632 16.6987C8.49417 16.6023 8.60203 16.514 8.71818 16.4256C8.82603 16.3453 8.94218 16.257 9.06662 16.1847C9.19107 16.1044 9.30722 16.0401 9.43996 15.9758C9.5727 15.9116 9.69715 15.8473 9.82989 15.7911C9.95434 15.7429 10.0788 15.6706 10.2447 15.6626C10.2198 15.7027 10.2032 15.7429 10.1783 15.759C9.88797 16.0803 9.66397 16.4256 9.45656 16.7951C9.03344 17.5421 8.77625 18.3533 8.67669 19.2048C8.56884 20.1124 8.62692 20.9959 8.85092 21.8714C9.08322 22.779 9.97093 23.7108 9.94604 23.4457C9.88797 22.8754 9.92116 22.3132 10.0041 21.759C10.1203 20.9076 10.3692 20.0963 10.7176 19.3092C11.149 18.3453 11.2486 21.2208 11.2403 21.7911C11.2403 22.4417 11.3067 23.0843 11.4643 23.7268C11.763 24.9236 12.3188 25.9919 13.1485 26.9236C13.9034 27.775 14.7994 28.4658 15.8365 28.9959C16.774 29.4778 18.873 29.9035 18.8564 29.8955C15.0566 27.0682 18.5411 28.1124 19.1468 28.4899C19.8188 28.9076 20.524 29.2529 21.2706 29.5421C21.7104 29.7108 22.1584 29.8553 22.623 29.9678C22.623 29.9598 22.623 29.9437 22.623 29.9357C22.233 29.4537 21.9924 28.8513 21.9592 28.2007C21.951 28.0963 21.9592 27.9919 21.9675 27.8875C21.9012 27.6626 21.8597 27.4296 21.8514 27.1887C21.8514 27.1485 21.8514 27.1164 21.8514 27.0762C21.785 26.9076 21.7269 26.7228 21.6938 26.5381C21.4698 26.1445 21.337 25.6947 21.3121 25.2208C21.2541 23.8955 22.2164 22.5541 23.5107 22.3052C24.1163 22.016 24.9211 22.1847 25.5765 22.273C25.983 22.3292 26.3812 22.4337 26.7795 22.5541C27.9493 22.9156 29.0776 23.3815 30.181 23.9276C30.488 24.0803 30.8032 24.2329 31.1185 24.3774C31.7739 24.6746 32.4542 24.763 33.1677 24.7068C33.624 24.6746 34.0056 24.4819 34.3209 24.1606C34.4039 24.0642 34.5034 24.0321 34.6196 24.0321C34.9016 24.0321 35.1671 23.9999 35.4409 23.9517C35.8972 23.8714 36.3203 23.7188 36.7103 23.51C36.8596 23.4297 37.0006 23.3333 37.1334 23.2208C36.9509 23.0361 36.7766 22.8594 36.6439 22.6505C36.5112 22.4497 36.4033 22.2329 36.3535 21.9999C36.3037 21.759 36.2706 21.51 36.312 21.261C36.395 21.2369 36.4697 21.2288 36.5443 21.2128C36.8015 21.1726 37.0587 21.1325 37.3159 21.0843C37.598 21.028 37.8801 20.9558 38.1538 20.8915C38.2036 20.8835 38.2617 20.8674 38.2949 20.8112C38.2119 20.779 38.1787 20.7389 38.1289 20.7148ZM28.0322 13.7108C28.2894 13.7509 28.5383 13.8313 28.7872 13.9116C29.2684 14.0883 29.733 14.2971 30.1561 14.5783C30.4963 14.8112 30.77 15.0843 30.9691 15.4297C31.0936 15.6465 30.2557 15.9196 29.7247 15.6626C29.5422 15.5823 29.3679 15.5019 29.1771 15.4297C29.0776 15.3895 28.9946 15.3413 28.9365 15.2449C28.613 14.763 28.2977 14.2891 27.9741 13.8072C27.9493 13.7831 27.9493 13.7509 27.9161 13.7027C27.9741 13.7108 27.999 13.7028 28.0322 13.7108ZM32.9188 23.8232C32.869 23.8313 32.8275 23.8313 32.7778 23.8393C32.2551 23.8955 31.749 23.8473 31.2512 23.6786C30.7949 23.5341 30.3635 23.3493 29.9238 23.1566C29.2601 22.8594 28.613 22.5622 27.9576 22.2489C27.8248 22.1847 27.7004 22.1204 27.5759 22.0481C27.2938 21.8955 27.0698 21.6786 26.9039 21.4136C26.8209 21.277 26.738 21.1405 26.6633 20.9959C26.5057 20.6746 26.3646 20.3533 26.207 20.0401C26.1821 19.9919 26.1655 19.9517 26.1821 19.8875C26.2568 19.8634 26.3149 19.8875 26.3895 19.9035C27.1694 20.0321 27.8663 20.3373 28.5134 20.7791C28.8536 21.012 29.1688 21.277 29.4758 21.5501C29.9653 21.9758 30.4548 22.4015 30.994 22.771C31.4337 23.0682 31.8818 23.3413 32.3795 23.5421C32.5372 23.6144 32.7031 23.6626 32.8607 23.7188C32.9271 23.7429 32.9935 23.767 33.1013 23.7991C33.0184 23.8232 32.9686 23.8232 32.9188 23.8232Z" fill="white"/>
<path d="M39.7466 20.5703C38.9667 19.5502 33.7317 17.5582 33.74 14.5381C33.7483 11.5181 31.2842 9.59838 30.3301 8.53814C29.3761 7.4779 30.2721 0 30.2721 0C27.5177 0.730923 24.8794 2.51405 24.8794 2.51405C23.021 2.24899 20.0177 2.19277 18.2672 2.43373C17.255 2.57028 16.2511 2.84337 15.2887 3.17269C13.588 3.75903 12.0863 4.57831 10.6925 5.69477C9.92097 6.31325 9.23237 6.91566 8.6931 7.59839C6.34521 10.5944 6.34521 13.6626 6.34521 13.6626L7.00893 13.0201C6.99233 13.0602 6.97574 13.1004 6.95915 13.1405C5.44091 16.9397 7.22463 21.8233 7.26612 21.5743L7.63946 20.5462C7.66434 21.0843 7.73901 21.6064 7.86346 22.1044C8.15383 23.2369 9.17429 24.257 9.29044 24.3614L11.0991 26.1205V26.0883C11.0825 25.9919 11.0742 25.9036 11.0742 25.8072C13.7705 31.1486 20.3744 31.2048 20.3744 31.2048L19.9181 30.1365C20.3496 30.3373 20.7644 30.514 21.1875 30.6666C20.9801 30.3132 20.8473 29.9277 20.7976 29.51C20.615 29.1486 20.4989 28.747 20.4823 28.3213C20.4574 27.8474 20.5819 27.4056 20.8142 27.012C20.8142 26.9719 20.8059 26.9237 20.8059 26.8755C20.7644 26.0482 21.063 26.1526 21.7019 25.6385C23.6764 21.4217 27.7085 23.8152 29.0027 24.5703C33.1177 26.9879 34.8683 25.0763 34.8683 25.0763C37.5314 24.9558 38.2615 23.5502 38.2615 23.5502C38.2615 23.5502 40.5181 21.5903 39.7466 20.5703Z" fill="#1C2327"/>
<path d="M12.9325 10.5702C12.9243 10.5783 12.9243 10.5863 12.9243 10.5863C12.9408 10.5702 12.9657 10.5461 12.9823 10.5301C12.9657 10.5461 12.9491 10.5542 12.9325 10.5702ZM13.3723 16.0401C13.198 16.7068 13.1151 17.3493 13.0985 17.9357C13.1151 17.7027 13.1317 17.4698 13.1566 17.2449C13.2063 16.7469 13.3225 16.2489 13.4552 15.767C13.4635 15.7429 13.4718 15.7108 13.4801 15.6867C13.4054 15.9116 13.3723 16.0401 13.3723 16.0401ZM38.1287 20.7148C38.0043 20.6264 37.8881 20.5381 37.772 20.4497C37.2659 20.0401 36.7515 19.6224 36.2455 19.2048C35.3992 18.506 34.5779 17.775 33.8063 17.004C33.5491 16.7389 33.2919 16.4738 33.0845 16.1686C32.8107 15.759 32.6614 15.3172 32.6697 14.8353C32.6697 14.6345 32.678 14.4417 32.678 14.2409C32.678 13.8955 32.6116 13.5501 32.4872 13.2289C32.3213 12.7791 32.0558 12.3774 31.7654 11.9839C31.4335 11.5421 31.0685 11.1164 30.6869 10.7068C30.3716 10.3694 30.0646 10.016 29.7494 9.67062C29.5088 9.3895 29.2765 9.10034 29.0774 8.78709C28.704 8.19271 28.5049 7.54211 28.5713 6.83528C28.5962 6.60235 29.2267 1.70276 29.2267 1.6626C29.1769 1.68669 25.6095 3.4377 24.9623 3.98388C24.2406 4.58629 23.5437 5.2128 22.9214 5.91962C22.5647 6.32123 22.2245 6.7389 21.9424 7.19673C21.7516 7.52605 21.5691 7.85536 21.4861 8.23287C21.4032 8.59432 21.4447 8.93167 21.6189 9.26098C21.8346 9.64653 22.125 9.98387 22.5149 10.2248C22.9712 10.506 23.4358 10.5301 23.9087 10.2489C24.0912 10.1445 24.2571 10.016 24.3899 9.85536C24.5143 9.71882 24.6305 9.57424 24.7383 9.43769C25.037 9.08428 26.5055 6.70677 26.5304 6.66661C26.4972 6.66661 26.464 6.65858 26.4474 6.66661C26.1404 6.81119 24.2323 7.75898 24.2157 7.72685C24.2986 7.59834 28.1565 2.94774 28.1979 2.90758C28.1979 2.95577 27.2936 8.30516 27.2522 8.60235C27.2439 8.68267 27.2107 8.73086 27.136 8.77906C27.053 8.82725 25.3606 9.84733 25.3357 9.92765C25.2942 10.0803 25.2527 10.2329 25.1863 10.3774C25.0038 10.763 24.7135 11.0762 24.3484 11.3092C24 11.5421 23.61 11.6947 23.2118 11.8232C22.5398 12.0481 21.8512 12.2489 21.1958 12.522C20.5984 12.771 20.0343 13.0682 19.5033 13.4297C18.292 14.257 21.9425 15.1807 23.0376 15.2851C23.2035 15.3011 23.3611 15.3333 23.5271 15.3654C23.552 15.3734 23.6515 15.4216 23.6515 15.4216C23.6515 15.4216 23.4773 15.4457 23.4109 15.4537C23.0957 15.4859 22.797 15.5823 22.5066 15.7027C21.9424 15.9437 21.4613 16.3052 21.0298 16.7309C20.4242 17.3252 19.9762 18.0321 19.636 18.8031C19.2793 19.6305 19.0719 20.4899 19.0138 21.3895C18.964 22.1365 19.047 22.8674 19.2212 23.5983C19.3955 24.3292 19.6443 25.1405 19.5033 25.5582C19.0968 25.1325 18.74 24.6907 18.4248 24.2329C15.0564 20.8031 15.5542 17.9276 15.5542 17.9276C13.8617 19.5823 13.7207 22.1847 13.7207 22.1847C11.9702 21.2449 12.161 16.6505 12.161 16.6425C11.265 17.2851 10.5017 18.1766 10.5017 18.1766C11.4641 13.3815 15.6206 10.4096 15.6206 10.4096C12.0365 11.2931 9.3402 14.008 9.25724 14.0963C12.5758 7.47785 16.5996 6.72283 17.2052 6.64251C17.255 6.62645 17.2882 6.61842 17.2965 6.61038C17.0227 6.49793 16.7821 6.43368 16.5332 6.38548C16.2926 6.33729 16.0354 6.2891 15.7865 6.25697C15.5459 6.23287 15.2887 6.21681 15.0481 6.21681C14.7992 6.21681 14.5421 6.22484 14.2849 6.24091C14.036 6.265 13.7788 6.2891 13.5299 6.33729C13.281 6.37745 13.0404 6.44171 12.7832 6.50597C12.8081 6.48187 12.8081 6.46581 12.8164 6.45777C12.8413 6.43368 12.8745 6.41761 12.8994 6.40155C13.4054 6.12043 13.9364 5.87946 14.484 5.68669C15.297 5.39753 16.1267 5.22083 16.9895 5.1887C17.8108 5.15657 19.495 5.63047 20.1836 6.08027C20.8556 5.07625 21.9176 3.99191 23.2948 3.33328L21.2538 3.18067C20.3081 3.18067 19.354 3.22886 18.4248 3.38147C17.4707 3.53408 16.5332 3.76701 15.6206 4.08026C14.036 4.62645 12.6173 5.40557 11.323 6.43368C10.6427 6.97986 10.0122 7.56621 9.44806 8.21681C8.8922 8.85938 8.40271 9.53408 7.99618 10.265C7.87174 10.4819 7.64774 10.9638 7.63944 11.0361C7.71411 10.9638 9.77161 9.48588 10.9746 9.82323C10.4685 10.1285 9.99562 10.4819 9.5808 10.8995C8.82582 11.6465 8.26167 12.514 7.88003 13.4859C7.38225 14.7469 7.16654 15.9999 7.24951 17.3493C7.2578 17.5421 7.34077 18.3293 7.35736 18.3855C7.40714 18.257 8.06256 16.522 10.2528 15.6626C10.2279 15.7027 10.2113 15.7429 10.1864 15.759C9.89606 16.0803 9.67206 16.4256 9.46465 16.7951C9.04153 17.5421 8.78434 18.3533 8.68479 19.2048C8.57693 20.1124 8.60182 21.0039 8.82582 21.8794C9.05812 22.7871 9.98732 23.6947 9.98732 23.6947C9.98732 23.6947 9.92925 22.3212 10.0122 21.767C10.1284 20.9156 10.3773 20.1043 10.7257 19.3172C10.7921 20.3774 11.3147 23.0923 11.4724 23.7349C11.771 24.9317 12.3269 25.9999 13.1566 26.9317C13.9115 27.7831 14.8075 28.4738 15.8446 29.0039C16.7738 29.4778 18.8396 29.9035 18.8645 29.9035C15.0647 27.0762 18.5492 28.1204 19.1549 28.4979C19.2876 28.5782 19.412 28.6586 19.5448 28.7309C19.5365 28.6666 19.5282 28.6023 19.5282 28.5381C19.4701 27.3333 20.3993 26.273 21.5442 25.9035C21.4115 25.4618 21.2041 24.9477 21.3866 24.4497C21.7184 23.5501 22.4817 22.9959 23.3197 22.5622C23.9419 22.2409 24.896 22.1847 25.5763 22.273C25.9828 22.3292 26.381 22.4337 26.7793 22.5541C27.949 22.9156 29.0774 23.3815 30.1808 23.9276C30.4877 24.0803 30.803 24.2329 31.1183 24.3774C31.7737 24.6746 32.454 24.763 33.1675 24.7068C33.6238 24.6746 34.0054 24.4819 34.3207 24.1606C34.4037 24.0642 34.5032 24.0321 34.6194 24.0321C34.9014 24.0321 35.1669 23.9999 35.4407 23.9517C35.897 23.8714 36.3201 23.7188 36.7101 23.51C36.8594 23.4296 37.0004 23.3333 37.1332 23.2208C36.9507 23.0361 36.7764 22.8594 36.6437 22.6505C36.5109 22.4497 36.4031 22.2329 36.3533 21.9999C36.3035 21.759 36.2703 21.51 36.3118 21.261C36.3948 21.2369 36.4695 21.2288 36.5441 21.2128C36.8013 21.1726 37.0585 21.1325 37.3157 21.0843C37.5978 21.028 37.8799 20.9558 38.1536 20.8915C38.2034 20.8835 38.2615 20.8674 38.2947 20.8112C38.2117 20.779 38.1785 20.7389 38.1287 20.7148ZM32.9186 23.8232C32.8688 23.8313 32.8273 23.8313 32.7776 23.8393C32.2549 23.8955 31.7488 23.8473 31.251 23.6786C30.7947 23.5341 30.3633 23.3493 29.9236 23.1566C29.2599 22.8594 28.6128 22.5622 27.9573 22.2489C27.8246 22.1847 27.7002 22.1204 27.5757 22.0481C27.2936 21.8955 27.0696 21.6786 26.9037 21.4136C26.8207 21.277 26.7378 21.1405 26.6631 20.9959C26.5055 20.6746 26.3644 20.3533 26.2068 20.0401C26.1819 19.9919 26.1653 19.9517 26.1819 19.8875C26.2566 19.8634 26.3147 19.8875 26.3893 19.9035C27.1692 20.0321 27.8661 20.3373 28.5132 20.779C28.8534 21.012 29.1686 21.277 29.4756 21.5501C29.9651 21.9758 30.4546 22.4015 30.9938 22.771C31.4335 23.0682 31.8815 23.3413 32.3793 23.5421C32.537 23.6144 32.7029 23.6626 32.8605 23.7188C32.9269 23.7429 32.9933 23.767 33.1011 23.7991C33.0182 23.8232 32.9684 23.8232 32.9186 23.8232Z" fill="white"/>
<path d="M38.2948 20.8111C38.2948 21.0119 36.3119 21.285 36.3119 21.285C34.5116 18.3854 31.4336 16.5943 28.5133 16.779C28.1234 16.8031 27.7749 16.771 27.468 16.6987C27.1278 16.6746 26.7794 16.4658 26.4475 16.2168C25.3358 15.3894 25.1118 13.9517 25.1118 13.9517C20.2252 16.281 23.5106 11.767 23.5686 11.6866C23.8424 11.5822 24.0996 11.4617 24.3402 11.3011C24.7135 11.0682 25.1533 10.3051 25.3358 9.91957C25.3856 9.81515 26.265 9.28503 26.7711 8.97981C27.0117 8.83523 27.1776 8.6023 27.2274 8.33724C27.4845 7.02801 28.1566 3.15652 28.1897 2.90753V2.8995C28.1897 2.8995 28.1897 2.8995 28.1897 2.89146C28.1897 2.89146 28.1897 2.8995 28.1814 2.8995C27.974 3.14849 24.2904 7.58222 24.2075 7.71074C24.2241 7.74287 26.1322 6.79507 26.4392 6.6505C26.4558 6.64246 26.489 6.6505 26.5222 6.6505C26.5139 6.67459 26.1405 7.26094 25.7423 7.90351C25.3275 8.55411 24.8795 9.24487 24.7301 9.42158C24.6223 9.55812 24.5061 9.7027 24.3817 9.83925C24.2489 9.99989 24.083 10.1284 23.9005 10.2328C23.4276 10.5139 22.963 10.4899 22.5067 10.2087C22.1168 9.96776 21.8264 9.63041 21.6107 9.24487C21.4365 8.91556 21.395 8.57821 21.4779 8.21676C21.5609 7.83925 21.7434 7.50993 21.9343 7.18062C22.2163 6.72279 22.5565 6.30512 22.9132 5.90351C23.5355 5.19668 24.2324 4.57018 24.9541 3.96777C25.6013 3.42158 29.1687 1.67058 29.2185 1.64648C29.2185 1.68664 28.588 6.58624 28.5631 6.81917C28.4967 7.526 28.6958 8.1766 29.0692 8.77098C29.2683 9.08423 29.5006 9.37339 29.7412 9.65451C30.0564 9.99989 30.3634 10.3533 30.6787 10.6907C31.0603 11.1003 31.4253 11.526 31.7572 11.9678C32.0476 12.3613 32.3131 12.7629 32.479 13.2127C32.6034 13.534 32.6698 13.8794 32.6698 14.2248C32.6698 14.4256 32.6615 14.6184 32.6615 14.8192C32.6532 15.3011 32.8025 15.7429 33.0763 16.1525C33.2837 16.4577 33.5409 16.7228 33.7981 16.9878C34.5697 17.7589 35.391 18.4898 36.2373 19.1886C36.7516 19.6143 38.1703 20.7228 38.2948 20.8111Z" fill="#DEE8F0"/>
<path d="M31.0519 14.7228C30.8362 14.6666 30.7532 14.7389 30.6868 14.8032C29.8821 14.5622 28.4883 14.016 27.8577 13.004C27.7001 12.7469 27.584 12.4578 27.5508 12.1445C27.5508 12.1445 28.0486 12.8594 28.845 13.0682C29.1354 13.1405 29.5336 13.4136 29.9236 13.7269C30.3633 14.0642 30.7947 14.4658 31.0519 14.7228Z" fill="#242C33"/>
<path d="M31.7737 15.0522C31.7737 15.0522 31.6825 14.9318 30.9358 14.98C30.1559 15.0281 30.1725 15.3173 29.4424 15.3414C28.8949 15.3575 28.48 15.0763 28.1897 14.6185C27.891 14.1607 27.6587 13.8876 27.6587 13.8876C27.6587 13.8876 28.0071 14.0241 28.2311 14.1928C28.2311 14.1928 27.7997 13.4217 27.7417 13.0522C27.7417 13.0522 28.5215 13.5663 29.318 13.743C30.1144 13.9277 31.4253 14.5302 31.7737 15.0522Z" fill="white"/>
<path d="M29.7411 14.0562L28.9944 13.8955V14.0963L29.0359 14.4979L29.5337 14.8995L29.99 14.8594L30.4048 14.6586L30.3633 14.4578L30.0729 14.2971L29.7411 14.0562Z" fill="#71CBFF"/>
<path d="M29.4534 14.0542C29.4285 14.1858 29.5363 14.3914 29.6026 14.4325C29.7767 14.5229 30.0752 14.5147 30.0752 14.5147C30.0752 14.5147 29.9923 14.3009 29.8099 14.194C29.6192 14.0789 29.4534 14.0542 29.4534 14.0542Z" fill="white"/>
<path d="M31.1929 14.4658C30.7532 14.1124 30.3301 13.8795 29.9153 13.7188C29.4673 13.5421 29.0441 13.4377 28.621 13.3494C28.3307 13.2851 28.0486 13.1325 27.8495 12.9959C27.6835 12.8835 27.5757 12.7871 27.5757 12.7871C27.5757 12.7871 27.9822 13.6305 28.5713 13.7831C28.6376 14.008 29.0027 15.1486 29.741 15.012C29.741 15.012 29.2681 15.3895 28.9778 15.4377C28.9778 15.4377 29.5668 15.5984 30.6205 14.8594C30.6454 14.8433 30.6619 14.8192 30.6868 14.7951C30.7532 14.7309 30.8445 14.6586 31.0519 14.7148C31.0602 14.7148 31.0602 14.7148 31.0685 14.7148C31.251 14.763 31.7488 15.0281 31.7737 15.0441C31.7654 15.0361 31.5911 14.7229 31.1929 14.4658ZM29.3345 14.6747C29.0193 14.4498 29.0939 13.9437 29.1022 13.9518C29.2599 13.9759 29.4839 14.0562 29.6996 14.1526C29.6747 14.1606 29.6581 14.1686 29.6581 14.1686C29.7659 14.2329 29.8738 14.3373 29.8157 14.3855C29.7659 14.4257 29.6 14.3855 29.5502 14.3694C29.5419 14.3694 29.5419 14.3694 29.5419 14.3694C29.5419 14.3694 29.6083 14.498 29.7991 14.5461C30.0895 14.6104 30.2305 14.514 30.2637 14.4819C30.2969 14.514 30.3218 14.5381 30.3301 14.5622C30.3301 14.5622 29.8489 15.0361 29.3345 14.6747Z" fill="#242C33"/>
<path d="M28.198 2.91575L24.2158 7.71896C24.2324 7.75109 26.1405 6.80329 26.4475 6.65872C26.4641 6.65068 26.4973 6.65872 26.5305 6.65872C26.5222 6.68281 26.1488 7.26916 25.7506 7.91173C25.2943 8.45791 24.6223 8.81133 23.8839 8.83542C23.2368 8.86755 22.6643 8.64265 22.88 7.70289C23.3032 5.80731 27.8745 3.09245 28.198 2.91575C28.1897 2.90771 28.1897 2.90771 28.198 2.91575C28.198 2.90771 28.1897 2.90771 28.198 2.91575C28.2063 2.90771 28.2063 2.90771 28.2063 2.90771L28.198 2.91575Z" fill="white"/>
<path d="M43.4302 35.8315C43.2643 35.4459 43.1813 34.9961 43.1813 34.4821L43.173 26.7953C43.173 26.3054 43.2477 25.8957 43.4053 25.5985L44.1105 24.209H37.1747L37.3241 24.474C36.9092 24.2973 36.4446 24.209 35.922 24.209H35.9137L35.8058 24.217L35.7394 24.2732C35.3744 24.5704 34.943 24.7873 34.495 24.9078L34.4452 24.9238L34.4037 24.956C33.8562 25.3576 33.209 25.5744 32.5785 25.5744C31.9397 25.5744 31.334 25.3817 30.828 25.0202L30.7865 24.9881L30.7367 24.9801C30.156 24.8435 29.6001 24.6026 29.0774 24.2732L29.011 24.2331H23.4027L22.5067 27.5825L21.5194 24.2331H1.00237L1.70756 25.6226C1.8569 25.9279 1.93986 26.3295 1.93986 26.8194L1.93156 34.5062C1.93156 35.0202 1.8486 35.47 1.68267 35.8556L0.861328 37.7511L2.89395 37.1487C3.66551 36.9238 4.03885 36.8114 4.80212 36.6106L6.05488 36.2813L5.39947 35.1969C5.28332 34.9961 5.20865 34.6427 5.21694 34.209L5.22524 32.4258C5.62347 33.4138 6.02999 34.4017 6.44481 35.3656L6.76837 36.1206L7.58972 35.9359C7.68927 35.9118 7.78883 35.8957 7.88009 35.8716L8.12069 36.3054C8.63506 37.2371 9.14944 38.1849 9.63893 39.1327L9.89612 39.6307L10.0538 39.5985C10.062 39.5905 10.062 39.5905 10.0703 39.5825C11.5222 39.221 21.843 36.8997 35.2914 39.6226C35.3827 39.6387 35.4822 39.6628 35.5984 39.6869L37.0337 40.0001L36.4446 38.6909C36.1874 38.1287 36.0215 37.7672 35.8141 37.3335C36.1377 37.0604 36.3949 36.8515 36.8346 36.4981L37.5564 35.9198L38.6598 36.1929C39.8296 36.4821 41.0325 36.8034 42.2272 37.1487L44.2433 37.7351L43.4302 35.8315Z" fill="#1C2327"/>
<path d="M9.87946 32.7072C9.89605 30.6991 9.91264 28.6911 9.93753 26.6831C9.94583 26.1529 9.83797 25.6871 9.61397 25.3096C10.4021 25.3096 10.8004 25.3096 11.5885 25.3096C11.3562 25.663 11.2484 26.1128 11.2401 26.6509C11.2152 29.2212 11.1903 31.7915 11.1654 34.3618C9.88775 34.5706 8.61011 34.8196 7.34076 35.1007C6.24563 32.5144 5.20858 29.912 4.22131 27.2935C4.21301 29.6309 4.20471 31.9762 4.19642 34.3136C4.19642 34.916 4.29597 35.43 4.51998 35.7915C3.74011 36.0003 3.35848 36.1047 2.58691 36.3377C2.81092 35.8236 2.91047 35.2453 2.91047 34.6188C2.91047 32.0566 2.91047 29.4943 2.91877 26.9321C2.91877 26.3056 2.81092 25.7594 2.58691 25.3096C4.02219 25.3096 5.45747 25.3096 6.88445 25.3096C7.84684 27.7915 8.84241 30.2574 9.87946 32.7072Z" fill="url(#paint0_linear_5214_599)"/>
<path d="M15.8529 26.5623C15.8363 28.5382 15.8198 30.5221 15.8032 32.498C15.8032 32.98 15.9027 33.3976 16.1267 33.7189C14.8906 33.8394 13.6627 33.984 12.4348 34.1607C12.6671 33.7671 12.775 33.3093 12.7833 32.8033C12.7999 30.739 12.8247 28.6748 12.8413 26.6105C12.8496 26.1125 12.7418 25.6627 12.5178 25.3013C13.7374 25.3013 14.9652 25.3013 16.1848 25.3013C15.9691 25.6467 15.8612 26.0804 15.8529 26.5623Z" fill="url(#paint1_linear_5214_599)"/>
<path d="M28.3971 33.6707C28.1648 33.3254 28.057 32.9077 28.057 32.4017C28.0404 30.4499 28.0321 28.49 28.0155 26.5382C28.0155 26.0402 28.115 25.6306 28.339 25.3013H24.2738C23.8507 26.5864 23.3114 28.4177 22.8468 29.8876C22.7473 30.1928 22.656 30.482 22.5647 30.747C22.4818 30.482 22.3822 30.1928 22.2744 29.8876C21.7766 28.4177 21.1295 26.5864 20.7063 25.3013H17.1389C17.3629 25.6386 17.4707 26.0563 17.4624 26.5302C17.4541 28.474 17.4376 30.4258 17.421 32.3695C17.421 32.8434 17.3048 33.2772 17.0808 33.6306C17.8773 33.5663 18.2755 33.5422 19.0719 33.5021C18.8479 33.1968 18.7401 32.7952 18.7401 32.2972C18.7484 30.6185 18.7567 28.9398 18.765 27.2691C19.2047 28.6426 19.6527 30.0081 20.1007 31.3816C20.3247 32.0643 20.5487 32.7551 20.7727 33.4378C21.6355 33.4137 22.067 33.4137 22.9381 33.4137C23.6267 31.3655 24.3153 29.3093 24.9956 27.2531C25.0039 28.9157 25.0039 30.5784 25.0122 32.2491C25.0122 32.7149 24.9043 33.1246 24.6803 33.4458C25.9248 33.5101 27.1609 33.5744 28.3971 33.6707Z" fill="url(#paint2_linear_5214_599)"/>
<path d="M38.0126 31.7672C38.0126 31.221 37.8964 30.8033 37.6807 30.5142C37.3738 30.0804 36.8594 29.9439 36.1127 29.8716C37.1746 30.0001 38.137 29.5262 37.9794 28.3374C37.9794 27.9439 37.9711 27.7511 37.9711 27.3656C38.0126 26.0403 37.1746 25.2933 35.8555 25.3093H35.2996C34.5032 25.6788 33.657 25.8475 32.7444 25.8154C31.8235 25.8154 30.944 25.6306 30.131 25.3093H29.4424C29.6747 25.6547 29.7825 26.0885 29.7825 26.5704C29.7991 28.5623 29.8157 30.5543 29.8323 32.5463C29.8323 33.0282 29.7328 33.4539 29.5088 33.7752C31.6658 34.0081 33.8063 34.3214 35.9385 34.723C37.1166 34.98 38.1868 34.4579 38.0126 33.1246C38.0209 32.5784 38.0209 32.3053 38.0126 31.7672ZM32.8024 26.7712C33.491 26.7872 33.8395 26.7953 34.5281 26.8194C34.9595 26.8354 35.0756 27.0844 35.0839 27.8314C35.0922 28.9559 34.9512 29.0844 34.47 29.0523C33.8146 29.0041 33.4827 28.9881 32.8273 28.9479C32.819 28.0724 32.8107 27.6387 32.8024 26.7712ZM34.3456 32.9238C33.7482 32.8354 33.4578 32.7953 32.8605 32.723C32.8522 31.9519 32.8439 31.1005 32.8356 30.3214C33.4744 30.4017 33.798 30.466 34.3953 30.5463C35.0839 30.6427 35.1088 30.8113 35.1171 31.3575C35.1171 31.4941 35.1171 31.5664 35.1171 31.7029C35.1337 33.0684 34.9844 33.0202 34.3456 32.9238Z" fill="url(#paint3_linear_5214_599)"/>
<path d="M42.1774 26.9318C42.1774 29.4941 42.1774 32.0563 42.1857 34.6186C42.1857 35.2451 42.2936 35.8234 42.5093 36.3375C41.3146 35.9921 40.1116 35.6708 38.9004 35.3656C39.1244 35.0122 39.2239 34.5222 39.2239 33.9439C39.2073 31.5664 39.199 29.1969 39.1824 26.8194C39.1824 26.2411 39.0663 25.719 38.8423 25.3174C40.0619 25.3174 41.2897 25.3174 42.5093 25.3174C42.277 25.7511 42.1691 26.3053 42.1774 26.9318Z" fill="url(#paint4_linear_5214_599)"/>
<path d="M13.5383 35.1729C13.3973 36.2331 13.2645 37.2933 13.1567 38.3616C12.8414 38.4098 12.6755 38.4339 12.3602 38.4901C12.0118 37.7431 11.8292 37.3737 11.4642 36.6267C11.4144 36.5303 11.3729 36.4178 11.348 36.2973H11.3397C11.3563 36.4419 11.3563 36.5544 11.348 36.6508C11.2734 37.47 11.2402 37.8797 11.1821 38.699C10.8503 38.7632 10.6843 38.7953 10.3608 38.8596C9.86299 37.9038 9.3569 36.956 8.83423 36.0162C9.15779 35.9439 9.32372 35.9118 9.65558 35.8475C10.0206 36.6186 10.1948 37.0042 10.5433 37.7753C10.5848 37.8556 10.618 37.968 10.6594 38.1126C10.6677 38.1126 10.6677 38.1126 10.676 38.1126C10.6594 38.0002 10.6594 37.8797 10.6677 37.7431C10.7341 36.8917 10.7756 36.466 10.8586 35.6146C11.1821 35.5584 11.3397 35.5263 11.6633 35.47C12.0283 36.2492 12.2109 36.6427 12.5676 37.4299C12.6008 37.5022 12.634 37.6066 12.6755 37.7512H12.6838C12.6672 37.6387 12.6672 37.5182 12.6755 37.4058C12.717 36.5624 12.7418 36.1367 12.7916 35.2933C13.082 35.2371 13.2313 35.213 13.5383 35.1729Z" fill="url(#paint5_linear_5214_599)"/>
<path d="M16.0438 38.0322C15.5875 38.0804 15.1976 37.984 14.8657 37.735C14.5339 37.486 14.3347 37.1326 14.2767 36.6747C14.2103 36.1928 14.3016 35.7751 14.567 35.4378C14.8325 35.1004 15.2225 34.8996 15.7368 34.8434C16.218 34.7952 16.6246 34.8996 16.9481 35.1647C17.2717 35.4298 17.4459 35.7912 17.4874 36.2651C17.5289 36.747 17.4127 37.1486 17.1472 37.4779C16.8817 37.7992 16.5167 37.984 16.0438 38.0322ZM15.7866 35.4458C15.5211 35.478 15.322 35.5904 15.1893 35.7912C15.0565 35.992 15.015 36.241 15.0482 36.5382C15.0897 36.8434 15.1976 37.0763 15.3635 37.229C15.5377 37.3896 15.7451 37.4539 15.9857 37.4298C16.2346 37.4057 16.4254 37.2932 16.5582 37.1085C16.6909 36.9237 16.7407 36.6747 16.7075 36.3695C16.6743 36.0482 16.5748 35.8073 16.4088 35.6466C16.2512 35.486 16.0438 35.4217 15.7866 35.4458Z" fill="url(#paint6_linear_5214_599)"/>
<path d="M20.3663 37.6704C19.603 37.7025 19.2214 37.7186 18.4498 37.7668C18.3752 36.7387 18.3005 35.7106 18.2258 34.6825C18.5328 34.6584 18.6821 34.6503 18.9891 34.6343C19.0389 35.4777 19.0887 36.313 19.1384 37.1564C19.6196 37.1323 19.8602 37.1162 20.3414 37.1001C20.3497 37.3331 20.3497 37.4455 20.3663 37.6704Z" fill="url(#paint7_linear_5214_599)"/>
<path d="M22.9548 35.1003C22.4819 35.1003 22.2413 35.1003 21.7684 35.1084C21.7767 35.4136 21.7767 35.5662 21.7767 35.8714C22.2081 35.8634 22.4238 35.8634 22.8552 35.8634C22.8552 36.0883 22.8552 36.2007 22.8552 36.4256C22.4321 36.4256 22.2164 36.4256 21.7933 36.4337C21.8016 36.9156 21.8016 37.1566 21.8099 37.6385C21.5195 37.6385 21.3785 37.6465 21.0881 37.6545C21.0632 36.6264 21.03 35.5903 21.0051 34.5622C21.785 34.5461 22.1832 34.5381 22.9631 34.5381C22.9548 34.763 22.9548 34.8754 22.9548 35.1003Z" fill="url(#paint8_linear_5214_599)"/>
<path d="M24.5228 36.5861C24.5062 37.0118 24.5062 37.2286 24.4896 37.6543C24.1992 37.6463 24.0582 37.6463 23.7678 37.6383C23.7844 36.6102 23.8093 35.574 23.8259 34.5459C24.3071 34.5539 24.5394 34.562 25.0206 34.578C25.8751 34.6102 26.2816 34.9636 26.2402 35.6222C26.2236 35.9355 26.0908 36.1764 25.8419 36.3531C25.593 36.5298 25.2778 36.6182 24.8795 36.6021C24.7302 36.5941 24.6638 36.5941 24.5228 36.5861ZM24.5643 35.1001C24.556 35.4857 24.5477 35.6784 24.5311 36.064C24.6472 36.064 24.7053 36.072 24.8215 36.072C25.2197 36.0881 25.4271 35.9355 25.4354 35.6061C25.452 35.2849 25.2529 35.1242 24.8547 35.1081C24.7468 35.1001 24.6887 35.1001 24.5643 35.1001Z" fill="url(#paint9_linear_5214_599)"/>
<path d="M29.4258 38C29.1106 37.9679 28.9529 37.9518 28.6377 37.9197C28.5713 37.6386 28.5464 37.494 28.48 37.2129C28.0154 37.1727 27.7914 37.1486 27.3268 37.1165C27.2107 37.3816 27.1609 37.5181 27.0448 37.7832C26.7295 37.7591 26.5719 37.751 26.2649 37.735C26.7212 36.7229 27.1941 35.7269 27.6836 34.731C28.0486 34.7551 28.2228 34.7711 28.5879 34.8032C28.8783 35.8635 29.1603 36.9237 29.4258 38ZM28.3556 36.6587C28.256 36.233 28.2063 36.0161 28.0984 35.5904C28.0818 35.5101 28.0652 35.4137 28.0652 35.3093C28.0569 35.3093 28.0569 35.3093 28.0486 35.3093C28.032 35.3976 28.0071 35.486 27.9657 35.5743C27.7831 35.984 27.6919 36.1848 27.5176 36.5944C27.8578 36.6185 28.0237 36.6346 28.3556 36.6587Z" fill="url(#paint10_linear_5214_599)"/>
<path d="M32.3463 38.2728C32.0974 38.3451 31.7822 38.3532 31.4088 38.2969C30.9194 38.2247 30.5543 38.0399 30.3054 37.7267C30.0565 37.4134 29.9653 37.0279 30.015 36.57C30.0731 36.0801 30.2888 35.7026 30.6622 35.4375C31.0355 35.1724 31.4835 35.0761 32.0145 35.1564C32.3463 35.2046 32.6118 35.2849 32.8275 35.3973C32.786 35.6624 32.7612 35.7909 32.7197 36.056C32.5206 35.8953 32.2717 35.799 31.9896 35.7588C31.6743 35.7106 31.4088 35.7668 31.1931 35.9275C30.9774 36.0801 30.8447 36.313 30.8032 36.6263C30.7617 36.9234 30.8198 37.1724 30.9691 37.3732C31.1185 37.5741 31.3425 37.6945 31.6411 37.7347C31.9232 37.7749 32.197 37.7508 32.4542 37.6544C32.4127 37.8953 32.3878 38.0239 32.3463 38.2728Z" fill="url(#paint11_linear_5214_599)"/>
<path d="M35.806 39.0363C35.4492 38.9559 35.2667 38.9238 34.91 38.8515C34.6528 38.2491 34.52 37.9519 34.2463 37.3495C34.2297 37.3174 34.2131 37.2612 34.1965 37.1648C34.1882 37.1648 34.1882 37.1648 34.1882 37.1648C34.072 37.7592 34.014 38.0563 33.8978 38.6507C33.6157 38.5945 33.4664 38.5704 33.1843 38.5222C33.3668 37.5102 33.5577 36.4901 33.7402 35.478C34.0389 35.5262 34.1965 35.5583 34.4952 35.6146C34.379 36.1929 34.3292 36.474 34.2131 37.0523C34.2214 37.0523 34.2214 37.0523 34.2214 37.0523C34.2463 37.0122 34.2877 36.964 34.3458 36.8997C34.8104 36.4579 35.0427 36.2411 35.5156 35.8073C35.8724 35.8796 36.0549 35.9198 36.4116 35.9921C35.8143 36.466 35.5239 36.7069 34.9515 37.1969C35.2999 37.9278 35.4741 38.2973 35.806 39.0363Z" fill="url(#paint12_linear_5214_599)"/>
<path d="M8.70967 29.8876C7.56477 30.0804 6.48623 30.2892 5.48237 30.5221C5.05925 29.4458 4.64443 28.3695 4.22961 27.2852C4.22961 28.4659 4.22131 29.6547 4.22131 30.8354C3.77331 30.9559 3.34189 31.0764 2.92707 31.2049C2.92707 29.7752 2.92707 28.3535 2.92707 26.9238C2.92707 26.2973 2.81922 25.7511 2.59521 25.3013H6.89276C7.4818 26.8434 8.08744 28.3695 8.70967 29.8876Z" fill="#DCE6F0"/>
<path d="M11.5886 25.3091C11.3563 25.6625 11.2484 26.1123 11.2401 26.6504C11.2318 27.6063 11.2235 28.5621 11.2152 29.5259C10.7755 29.5822 10.3358 29.6464 9.91268 29.7027C9.92098 28.6986 9.92928 27.6946 9.93757 26.6826C9.94587 26.1525 9.83802 25.6866 9.61401 25.3091H11.5886Z" fill="#DCE6F0"/>
<path d="M16.1929 25.3093C15.9606 25.6466 15.8527 26.0804 15.8527 26.5623C15.8444 27.3977 15.8361 28.233 15.8361 29.0683C14.8074 29.1406 13.7952 29.229 12.8246 29.3334C12.8328 28.4258 12.8411 27.5181 12.8494 26.6105C12.8577 26.1125 12.7499 25.6627 12.5259 25.3013H16.1929V25.3093Z" fill="#DCE6F0"/>
<path d="M21.9177 28.8432C21.0299 28.8512 20.1588 28.8673 19.296 28.8914C19.1218 28.3533 18.9475 27.8151 18.7733 27.277C18.7733 27.8231 18.765 28.3613 18.765 28.9075C18.3253 28.9235 17.8856 28.9476 17.4542 28.9637C17.4625 28.1525 17.4625 27.3492 17.4708 26.538C17.4708 26.0641 17.3712 25.6464 17.1472 25.3091H20.7147C21.0299 26.297 21.4945 27.6143 21.9177 28.8432Z" fill="#DCE6F0"/>
<path d="M28.0072 26.5463C28.0155 27.3656 28.0155 28.1768 28.0238 28.9961C27.0365 28.9399 26.0327 28.8997 25.0039 28.8756C25.0039 28.3455 25.0039 27.8073 24.9956 27.2772C24.8214 27.8073 24.6472 28.3375 24.4646 28.8676C24.0332 28.8595 23.5935 28.8515 23.1621 28.8515C23.5437 27.6226 23.942 26.3053 24.2655 25.3174H28.3308C28.1151 25.6306 28.0072 26.0483 28.0072 26.5463Z" fill="#DCE6F0"/>
<path d="M37.9877 28.3372C37.9877 27.9436 37.9794 27.7509 37.9794 27.3653C38.0209 26.032 37.1829 25.293 35.8638 25.3091L34.7438 25.3011C33.9473 25.6705 33.657 25.8473 32.7444 25.8151C31.8235 25.8151 30.944 25.3975 30.1393 25.0762L29.4507 25.3091C29.683 25.6545 29.7908 26.0882 29.7908 26.5701C29.7991 27.4135 29.8074 28.2649 29.8157 29.1083C32.1719 29.285 34.3788 29.5501 36.3948 29.8874C37.3489 29.9115 38.1287 29.4215 37.9877 28.3372ZM34.4617 29.0521C33.8063 29.0039 33.5076 28.9316 32.819 28.8593C32.8107 27.9918 32.8024 27.6384 32.7941 26.7709C33.4827 26.787 33.8312 26.795 34.5198 26.8191C34.9429 26.8352 35.0674 27.0842 35.0756 27.8312C35.0922 28.9557 34.9512 29.0842 34.4617 29.0521Z" fill="#DCE6F0"/>
<path d="M42.1774 26.9316C42.1774 28.3613 42.1774 29.783 42.1774 31.2127C41.2648 30.9316 40.2693 30.6745 39.199 30.4336C39.1907 29.2288 39.1824 28.0239 39.1824 26.8111C39.1824 26.2328 39.0663 25.7107 38.8423 25.3091H42.5093C42.277 25.7508 42.1691 26.3051 42.1774 26.9316Z" fill="#DCE6F0"/>
<path d="M28.5132 16.7794C25.5928 16.9641 25.1116 13.9521 25.1116 13.9521C20.1836 16.3055 23.5685 11.687 23.5685 11.687C22.5812 11.9762 19.0967 11.9681 18.7815 14.3537C18.6653 15.2051 19.2959 15.9762 20.167 16.0886C20.6399 16.1529 21.6769 16.1207 21.6769 16.1207C21.6769 16.1207 16.5746 17.9601 19.2959 24.2332H20.5569C20.5569 24.2332 17.2135 18.9561 24.8793 15.6388V15.6308C24.9789 17.2854 27.642 18.3697 27.642 18.3697C30.2139 16.7472 36.262 21.2613 36.262 21.2613C34.4617 18.3537 31.4335 16.5946 28.5132 16.7794Z" fill="white"/>
<path d="M16.3425 15.3336C16.3425 15.3336 12.7003 18.0323 13.4304 20.7231C13.4304 20.7231 12.7003 18.5544 13.3723 16.0404C13.3723 16.0404 14.5007 11.2773 20.1837 8.52231C20.1837 8.52231 15.5958 7.96006 12.9243 10.5866C12.916 10.5866 13.7042 8.50625 17.2882 6.63477C17.2882 6.63477 12.858 6.90786 9.25732 14.0966C9.25732 14.0966 11.9785 11.3095 15.6207 10.4099C15.6207 10.4099 11.4642 13.3817 10.5018 18.1769C10.5018 18.1769 11.2734 17.2773 12.1611 16.6428C12.1611 16.6428 11.9702 21.2372 13.7208 22.185C13.7208 22.185 13.8618 19.5906 15.546 17.9279C15.546 17.9279 15.0482 20.8115 18.4166 24.2331C18.4249 24.2331 16.5167 20.6829 16.3425 15.3336Z" fill="#BCCFE2"/>
<defs>
<linearGradient id="paint0_linear_5214_599" x1="7.08772" y1="25.3096" x2="7.08772" y2="36.3377" gradientUnits="userSpaceOnUse">
<stop stop-color="#F1FCFF"/>
<stop offset="1" stop-color="#05A7DE"/>
</linearGradient>
<linearGradient id="paint1_linear_5214_599" x1="14.3098" y1="25.3013" x2="14.3098" y2="34.1607" gradientUnits="userSpaceOnUse">
<stop stop-color="#F1FCFF"/>
<stop offset="1" stop-color="#05A7DE"/>
</linearGradient>
<linearGradient id="paint2_linear_5214_599" x1="22.739" y1="25.3013" x2="22.739" y2="33.6707" gradientUnits="userSpaceOnUse">
<stop stop-color="#F1FCFF"/>
<stop offset="1" stop-color="#05A7DE"/>
</linearGradient>
<linearGradient id="paint3_linear_5214_599" x1="33.7368" y1="25.3091" x2="33.7368" y2="34.7864" gradientUnits="userSpaceOnUse">
<stop stop-color="#F1FCFF"/>
<stop offset="1" stop-color="#05A7DE"/>
</linearGradient>
<linearGradient id="paint4_linear_5214_599" x1="40.6758" y1="25.3174" x2="40.6758" y2="36.3375" gradientUnits="userSpaceOnUse">
<stop stop-color="#F1FCFF"/>
<stop offset="1" stop-color="#05A7DE"/>
</linearGradient>
<linearGradient id="paint5_linear_5214_599" x1="8.38042" y1="34.3548" x2="9.53644" y2="38.4715" gradientUnits="userSpaceOnUse">
<stop offset="0.00558659" stop-color="#D9CB00"/>
<stop offset="1" stop-color="#FF8717"/>
</linearGradient>
<linearGradient id="paint6_linear_5214_599" x1="13.9433" y1="34.1193" x2="15.1639" y2="37.5553" gradientUnits="userSpaceOnUse">
<stop offset="0.00558659" stop-color="#D9CB00"/>
<stop offset="1" stop-color="#FF8717"/>
</linearGradient>
<linearGradient id="paint7_linear_5214_599" x1="18.0193" y1="33.9392" x2="19.5714" y2="36.8991" gradientUnits="userSpaceOnUse">
<stop offset="0.00558659" stop-color="#D9CB00"/>
<stop offset="1" stop-color="#FF8717"/>
</linearGradient>
<linearGradient id="paint8_linear_5214_599" x1="20.8162" y1="33.8465" x2="22.4319" y2="36.6795" gradientUnits="userSpaceOnUse">
<stop offset="0.00558659" stop-color="#D9CB00"/>
<stop offset="1" stop-color="#FF8717"/>
</linearGradient>
<linearGradient id="paint9_linear_5214_599" x1="23.529" y1="33.8561" x2="24.9303" y2="36.9703" gradientUnits="userSpaceOnUse">
<stop offset="0.00558659" stop-color="#D9CB00"/>
<stop offset="1" stop-color="#FF8717"/>
</linearGradient>
<linearGradient id="paint10_linear_5214_599" x1="25.9599" y1="34.0056" x2="27.2431" y2="37.4683" gradientUnits="userSpaceOnUse">
<stop offset="0.00558659" stop-color="#D9CB00"/>
<stop offset="1" stop-color="#FF8717"/>
</linearGradient>
<linearGradient id="paint11_linear_5214_599" x1="29.7294" y1="34.4177" x2="31.076" y2="37.7314" gradientUnits="userSpaceOnUse">
<stop offset="0.00558659" stop-color="#D9CB00"/>
<stop offset="1" stop-color="#FF8717"/>
</linearGradient>
<linearGradient id="paint12_linear_5214_599" x1="32.873" y1="34.6885" x2="34.3377" y2="38.3964" gradientUnits="userSpaceOnUse">
<stop offset="0.00558659" stop-color="#D9CB00"/>
<stop offset="1" stop-color="#FF8717"/>
</linearGradient>
</defs>
</svg>
