<svg width="2849" height="306" viewBox="0 0 2249 306" fill="none" xmlns="http://www.w3.org/2000/svg">
<path d="M207.906 146.889L192.413 169.215L150.932 192.657L121.446 230.61L84.9628 234.517L54.9767 262.982H42.4825L0 306H2549L2521.01 273.548L2496.51 266.633L2430.52 196.419L2407.53 206.24L2387.03 196.419L2347.04 206.24L2313.55 178.845L2291.05 184.53L2266.56 173.159L2224.56 157.652L2208.07 164.889H2187.07L2167.07 173.159L2149.58 164.889L2118.08 206.24L2098.09 191.767L2066.09 216.061L2029.6 196.419L1965.61 242.422L1944.62 236.22L1899.63 283.257L1887.13 273.548L1862.63 294.111L1798.65 236.22H1775.15L1660.73 113.401L1620.25 126.796L1567.28 113.401L1526.8 126.796L1467.32 79.3548L1432.84 92.7501L1402.35 67.6339L1383.86 79.3548L1334.74 56.8581L1310.9 67.6339H1287.25L1252.25 92.7501L1226.76 81.6689L1167.27 135.426L1123.48 113.401L1078.5 147.448L1032.02 113.401L950.562 185.959H907.582L830.118 242.889H814.125L743.354 278.605L673.69 226.703L644.874 240.355L591.384 191.25L560.89 197.453L496.903 109.064L481.905 100.277L462.409 71.3311L436.414 61.5101L411.919 23.777L372.927 0L352.431 23.777L316.438 58.4088L286.944 70.8142L237.453 134.392L207.906 146.889Z" fill="#242D32"/>
</svg>
