<svg width="199" height="184" viewBox="0 0 199 184" fill="none" xmlns="http://www.w3.org/2000/svg">
<path d="M170.519 95.2349C169.951 94.8287 169.422 94.4225 168.892 94.0163C166.585 92.133 164.239 90.2128 161.932 88.2926C158.074 85.08 154.329 81.7197 150.811 78.1747C149.638 76.9561 148.466 75.7375 147.52 74.3343C146.272 72.451 145.591 70.4201 145.629 68.2045C145.629 67.2813 145.666 66.395 145.666 65.4719C145.666 63.884 145.364 62.2962 144.796 60.8191C144.04 58.7512 142.829 56.9049 141.506 55.0955C139.992 53.0645 138.328 51.1074 136.588 49.2241C135.151 47.6732 133.751 46.0484 132.314 44.4605C131.217 43.1681 130.158 41.8387 129.25 40.3986C127.548 37.666 126.64 34.6749 126.942 31.4254C127.056 30.3545 129.931 7.82917 129.931 7.64453C129.704 7.75531 113.438 15.8053 110.488 18.3164C107.197 21.0859 104.019 23.9662 101.182 27.2157C99.5558 29.0621 98.005 30.9823 96.7188 33.0871C95.8488 34.6011 95.0167 36.1151 94.6384 37.8506C94.2601 39.5123 94.4492 41.0633 95.2436 42.5773C96.2271 44.3498 97.551 45.9007 99.3289 47.0085C101.409 48.3009 103.528 48.4117 105.684 47.1193C106.516 46.6392 107.272 46.0484 107.878 45.3099C108.445 44.6821 108.975 44.0174 109.466 43.3897C110.828 41.7649 117.523 30.8345 117.637 30.6499C117.486 30.6499 117.334 30.613 117.259 30.6499C115.859 31.3146 107.159 35.672 107.083 35.5243C107.462 34.9334 125.051 13.5528 125.24 13.3682C125.24 13.5897 121.117 38.183 120.928 39.5493C120.89 39.9185 120.739 40.1401 120.398 40.3617C120.02 40.5832 112.303 45.2729 112.19 45.6422C112.001 46.3438 111.812 47.0454 111.509 47.7101C110.677 49.4826 109.353 50.9227 107.689 51.9936C106.1 53.0645 104.322 53.7661 102.506 54.3569C99.4424 55.3909 96.3028 56.314 93.3145 57.5695C90.5909 58.7143 88.0187 60.0806 85.5978 61.7423C80.0751 65.5457 96.7189 69.7923 101.712 70.2724C102.468 70.3462 103.187 70.4939 103.944 70.6416C104.057 70.6786 104.511 70.9001 104.511 70.9001C104.511 70.9001 103.717 71.0109 103.414 71.0478C101.977 71.1955 100.615 71.6386 99.2911 72.1926C96.7188 73.3004 94.5249 74.9621 92.5579 76.9192C89.7966 79.6518 87.754 82.9013 86.2031 86.4463C84.5765 90.2497 83.6309 94.2009 83.3661 98.3367C83.1391 101.771 83.5174 105.131 84.3117 108.492C85.1061 111.852 86.2409 115.582 85.5978 117.502C67.895 98.9645 70.9589 71.8233 71.1859 70.4939C71.2237 70.3831 64.6419 77.2146 61.5401 84.1938C60.1027 87.2956 59.2327 90.5452 58.7409 93.9424C58.514 95.4195 58.4762 96.9335 58.514 98.4106C58.514 98.5214 58.5518 98.6321 58.514 98.7798C58.4762 98.8537 58.6275 99.0014 58.3627 99.0383C58.0979 98.1521 57.8331 97.2658 57.6061 96.3057C57.0387 94.0901 56.6605 91.9115 56.4714 89.622C56.1309 86.1878 56.2822 82.7536 56.6605 79.2825C56.8874 76.993 57.417 74.7036 58.0222 72.488C59.384 67.5028 61.4645 62.8501 64.3393 58.4927C65.8145 56.2402 67.5167 54.1723 69.3324 52.1782C72.0937 49.1502 75.2333 46.4546 78.6377 44.1282C81.2856 42.3188 84.0469 40.694 87.0352 39.4754C87.1487 39.4016 87.3379 39.3646 87.3 39.1431C87.1866 39.1061 87.1487 39.0692 87.0352 39.0692C84.3874 38.9215 81.7395 38.9584 79.0917 39.2908C74.7038 39.8078 70.4294 40.9156 66.3441 42.5773C61.994 44.3498 57.9466 46.7131 54.3152 49.5934C50.5326 52.5844 48.036 52.806 47.3551 53.3968C49.2086 50.2211 51.2135 47.1931 53.6344 44.4236C55.6392 42.0972 57.8331 39.9185 60.2918 37.9983C62.7127 36.1151 65.3228 34.4534 68.0841 33.124C70.2781 32.0531 75.1955 30.5391 75.5738 30.3914C74.3255 29.8744 73.2285 29.579 72.0937 29.3575C70.9968 29.1359 69.8241 28.9144 68.6893 28.7666C67.5924 28.6559 66.4197 28.582 65.3228 28.582C64.188 28.582 63.0153 28.6189 61.8427 28.6928C60.7079 28.8036 59.5353 28.9144 58.4005 29.1359C57.2657 29.3205 56.1687 29.616 54.9961 29.9114C55.1096 29.8006 55.1096 29.7267 55.1474 29.6898C55.2609 29.579 55.4122 29.5052 55.5257 29.4313C57.8331 28.1389 60.254 27.0311 62.7506 26.1448C66.4576 24.8155 70.2402 24.0031 74.1742 23.8554C77.919 23.7077 81.3991 24.4462 84.5387 26.5141C84.69 26.6249 96.4919 14.8083 96.4162 14.6237H93.6171C89.3048 14.6237 84.9548 14.8453 80.7182 15.5469C76.3681 16.2485 72.0937 17.3193 67.9328 18.7595C60.7079 21.2705 54.2396 24.8524 48.3386 29.579C45.2369 32.0901 42.362 34.7857 39.7898 37.7768C37.2554 40.7309 35.0237 43.8328 33.1702 47.1931C32.6028 48.1901 31.5815 50.4057 31.5436 50.7381C31.8841 50.4057 39.979 44.5713 43.6481 43.9436C45.2747 43.6481 47.2795 44.7929 46.7121 45.1621C44.4047 46.5654 42.2486 48.1901 40.3572 50.1103C36.915 53.5445 34.3428 57.5326 32.6028 62.0008C30.3332 67.7983 29.4632 73.7804 29.8414 79.9841C29.8793 80.8703 29.9927 81.7566 30.1062 82.6428C30.1062 82.7536 30.1819 82.8275 30.2575 83.086C30.6358 82.4213 30.9006 81.8305 31.241 81.3135C31.6193 80.7596 31.9219 80.2426 32.338 79.7256C32.7162 79.1717 33.1323 78.6547 33.5484 78.1747C33.9645 77.6577 34.4184 77.2146 34.9102 76.7715C35.4019 76.3284 35.8937 75.9222 36.4233 75.516C36.915 75.1467 37.4446 74.7405 38.012 74.4082C38.5794 74.0389 39.1089 73.7435 39.7142 73.4481C40.3194 73.1526 40.8868 72.8572 41.492 72.5987C42.0594 72.3772 42.6268 72.0448 43.3833 72.0079C43.2699 72.1926 43.1942 72.3772 43.0807 72.451C41.7568 73.9281 40.7355 75.516 39.7898 77.2146C37.8607 80.6488 36.688 84.3784 36.2341 88.2926C35.7424 92.4653 36.0072 96.5273 37.0285 100.552C38.0876 104.725 42.1351 109.009 42.0216 107.79C41.7568 105.168 41.9081 102.583 42.2864 100.035C42.816 96.1211 43.9508 92.3915 45.5395 88.7727C47.5065 84.3415 47.9604 97.5612 47.9225 100.183C47.9225 103.174 48.2252 106.128 48.9439 109.082C50.3056 114.585 52.84 119.496 56.6227 123.779C60.0649 127.694 64.1501 130.869 68.8785 133.306C73.1529 135.522 82.723 137.479 82.6474 137.442C65.3228 124.444 81.2099 129.244 83.9713 130.98C87.0352 132.9 90.2505 134.488 93.6549 135.817C95.6597 136.593 97.7023 137.258 99.8206 137.775C99.8206 137.738 99.8206 137.664 99.8206 137.627C98.0428 135.411 96.9458 132.642 96.7945 129.651C96.7567 129.171 96.7945 128.691 96.8323 128.21C96.5297 127.177 96.3406 126.106 96.3028 124.998C96.3028 124.813 96.3028 124.666 96.3028 124.481C96.0002 123.705 95.7354 122.856 95.5841 122.007C94.5627 120.197 93.9575 118.129 93.844 115.951C93.5793 109.858 97.9671 103.691 103.868 102.546C106.629 101.217 110.299 101.992 113.287 102.399C115.14 102.657 116.956 103.137 118.772 103.691C124.105 105.353 129.25 107.495 134.281 110.006C135.68 110.707 137.118 111.409 138.555 112.073C141.543 113.44 144.645 113.846 147.898 113.587C149.979 113.44 151.719 112.554 153.156 111.076C153.534 110.633 153.988 110.486 154.518 110.486C155.804 110.486 157.014 110.338 158.263 110.116C160.343 109.747 162.272 109.045 164.05 108.085C164.731 107.716 165.374 107.273 165.979 106.756C165.147 105.907 164.353 105.094 163.748 104.134C163.142 103.211 162.651 102.214 162.424 101.143C162.197 100.035 162.045 98.8906 162.235 97.7459C162.613 97.6351 162.953 97.5982 163.294 97.5243C164.466 97.3397 165.639 97.1551 166.812 96.9335C168.098 96.675 169.384 96.3427 170.632 96.0472C170.859 96.0103 171.124 95.9365 171.275 95.678C170.897 95.5303 170.745 95.3457 170.519 95.2349ZM124.484 63.0347C125.656 63.2193 126.791 63.5886 127.926 63.9579C130.12 64.7703 132.238 65.7304 134.167 67.0228C135.718 68.0937 136.966 69.3492 137.874 70.937C138.442 71.9341 134.621 73.1896 132.2 72.0079C131.368 71.6386 130.574 71.2694 129.704 70.937C129.25 70.7524 128.871 70.5308 128.607 70.0877C127.131 67.8721 125.694 65.6934 124.219 63.4778C124.105 63.367 124.105 63.2193 123.954 62.9978C124.219 63.0347 124.332 62.9978 124.484 63.0347ZM146.763 109.526C146.536 109.562 146.347 109.562 146.12 109.599C143.737 109.858 141.43 109.636 139.16 108.861C137.08 108.196 135.113 107.347 133.108 106.461C130.082 105.094 127.131 103.728 124.143 102.288C123.538 101.992 122.971 101.697 122.403 101.365C121.117 100.663 120.096 99.6661 119.339 98.4475C118.961 97.8197 118.583 97.192 118.242 96.5273C117.523 95.0502 116.88 93.5732 116.162 92.133C116.048 91.9115 115.973 91.7268 116.048 91.4314C116.389 91.3206 116.653 91.4314 116.994 91.5053C120.55 92.0961 123.727 93.4993 126.678 95.5303C128.228 96.6012 129.666 97.8197 131.065 99.0752C133.297 101.032 135.529 102.989 137.988 104.688C139.992 106.054 142.035 107.31 144.305 108.233C145.023 108.565 145.78 108.787 146.499 109.045C146.801 109.156 147.104 109.267 147.596 109.415C147.217 109.526 146.99 109.526 146.763 109.526Z" fill="white"/>
<path d="M177.894 94.5695C174.338 89.8798 150.469 80.7219 150.507 66.8375C150.545 52.953 139.311 44.1275 134.961 39.2532C130.61 34.3788 134.696 0 134.696 0C122.137 3.36034 110.109 11.5581 110.109 11.5581C101.635 10.3395 87.9421 10.081 79.9607 11.1888C75.3459 11.8166 70.7688 13.0721 66.3809 14.5861C58.6265 17.2817 51.7799 21.0483 45.425 26.1811C41.9071 29.0244 38.7675 31.794 36.3088 34.9327C25.6039 48.7064 25.6039 62.8125 25.6039 62.8125L28.63 59.8583C28.5544 60.0429 28.4787 60.2276 28.403 60.4122C21.4808 77.8786 29.6135 100.33 29.8026 99.1853L31.5048 94.4587C31.6183 96.9328 31.9587 99.333 32.5261 101.622C33.8501 106.829 38.5028 111.519 39.0323 111.999L47.2785 120.086V119.938C47.2029 119.495 47.165 119.089 47.165 118.646C59.4587 143.202 89.5686 143.461 89.5686 143.461L87.4882 138.549C89.4552 139.472 91.3465 140.285 93.2757 140.986C92.33 139.362 91.7248 137.589 91.4978 135.669C90.6656 134.007 90.1361 132.161 90.0604 130.204C89.9469 128.025 90.5143 125.994 91.5735 124.185C91.5735 124 91.5356 123.779 91.5356 123.557C91.3465 119.754 92.7083 120.234 95.6209 117.87C104.624 98.4837 123.007 109.488 128.908 112.959C147.67 124.074 155.652 115.285 155.652 115.285C167.794 114.731 171.123 108.269 171.123 108.269C171.123 108.269 181.412 99.2592 177.894 94.5695Z" fill="#1C2327"/>
<path d="M55.6421 48.5963C55.6043 48.6333 55.6043 48.6702 55.6043 48.6702C55.6799 48.5963 55.7934 48.4855 55.869 48.4117C55.7934 48.4855 55.7177 48.5225 55.6421 48.5963ZM57.6469 73.7435C56.8525 76.8084 56.4743 79.7625 56.3986 82.4582C56.4743 81.3873 56.5499 80.3164 56.6634 79.2825C56.8904 76.993 57.4199 74.7036 58.0252 72.4879C58.063 72.3772 58.1008 72.2295 58.1386 72.1187C57.7982 73.1526 57.6469 73.7435 57.6469 73.7435ZM170.521 95.2349C169.954 94.8287 169.424 94.4224 168.895 94.0163C166.587 92.133 164.242 90.2128 161.935 88.2926C158.077 85.08 154.332 81.7197 150.814 78.1747C149.641 76.9561 148.469 75.7375 147.523 74.3343C146.275 72.451 145.594 70.4201 145.632 68.2044C145.632 67.2813 145.669 66.395 145.669 65.4719C145.669 63.884 145.367 62.2962 144.799 60.8191C144.043 58.7512 142.832 56.9049 141.508 55.0954C139.995 53.0645 138.331 51.1073 136.591 49.2241C135.154 47.6731 133.754 46.0484 132.317 44.4605C131.22 43.1681 130.16 41.8387 129.253 40.3986C127.55 37.666 126.643 34.6749 126.945 31.4254C127.059 30.3545 129.934 7.82917 129.934 7.64453C129.707 7.75531 113.441 15.8053 110.491 18.3164C107.2 21.0859 104.022 23.9662 101.185 27.2157C99.5588 29.0621 98.0079 30.9823 96.7218 33.0871C95.8518 34.6011 95.0196 36.1151 94.6413 37.8506C94.263 39.5123 94.4522 41.0633 95.2465 42.5773C96.23 44.3497 97.554 45.9007 99.3318 47.0085C101.412 48.3009 103.531 48.4117 105.687 47.1193C106.519 46.6392 107.275 46.0484 107.881 45.3098C108.448 44.6821 108.978 44.0174 109.469 43.3896C110.831 41.7649 117.526 30.8345 117.64 30.6499C117.489 30.6499 117.337 30.613 117.262 30.6499C115.862 31.3146 107.162 35.672 107.086 35.5243C107.465 34.9334 125.054 13.5528 125.243 13.3682C125.243 13.5897 121.12 38.183 120.931 39.5493C120.893 39.9185 120.742 40.1401 120.401 40.3616C120.023 40.5832 112.306 45.2729 112.193 45.6422C112.004 46.3438 111.815 47.0454 111.512 47.7101C110.68 49.4826 109.356 50.9227 107.691 51.9936C106.103 53.0645 104.325 53.7661 102.509 54.3569C99.4453 55.3909 96.3057 56.314 93.3174 57.5695C90.5939 58.7143 88.0217 60.0806 85.6007 61.7423C80.0781 65.5457 96.7218 69.7923 101.715 70.2723C102.471 70.3462 103.19 70.4939 103.947 70.6416C104.06 70.6785 104.514 70.9001 104.514 70.9001C104.514 70.9001 103.72 71.0109 103.417 71.0478C101.98 71.1955 100.618 71.6386 99.294 72.1925C96.7218 73.3003 94.5278 74.962 92.5608 76.9192C89.7995 79.6517 87.7569 82.9013 86.206 86.4463C84.5794 90.2497 83.6338 94.2009 83.369 98.3367C83.142 101.771 83.5203 105.131 84.3147 108.492C85.109 111.852 86.2438 115.582 85.6007 117.502C83.7472 115.545 82.1207 113.514 80.6833 111.409C65.3257 95.641 67.5953 82.4213 67.5953 82.4213C59.8787 90.0282 59.2356 101.992 59.2356 101.992C51.2542 97.672 52.1242 76.5499 52.1242 76.513C48.0389 79.4671 44.5589 83.566 44.5589 83.566C48.9468 61.5207 67.8979 47.8578 67.8979 47.8578C51.5568 51.9197 39.2632 64.401 38.8849 64.8072C54.0155 34.3795 72.3614 30.9084 75.1228 30.5391C75.3497 30.4653 75.501 30.4283 75.5389 30.3914C74.2906 29.8744 73.1936 29.579 72.0588 29.3575C70.9618 29.1359 69.7892 28.9143 68.6544 28.7666C67.5575 28.6559 66.3848 28.582 65.2879 28.582C64.1531 28.582 62.9804 28.6189 61.8078 28.6928C60.673 28.8036 59.5004 28.9143 58.3656 29.1359C57.2308 29.3205 56.1338 29.616 54.9612 29.9114C55.0747 29.8006 55.0747 29.7267 55.1125 29.6898C55.226 29.579 55.3773 29.5052 55.4908 29.4313C57.7982 28.1389 60.2191 27.0311 62.7157 26.1448C66.4227 24.8155 70.2053 24.0031 74.1393 23.8554C77.8841 23.7077 85.5629 25.8864 88.7025 27.9543C91.7665 23.3384 96.6083 18.3533 102.887 15.3253L93.5822 14.6237C89.2699 14.6237 84.9199 14.8453 80.6833 15.5469C76.3332 16.2485 72.0588 17.3193 67.8979 18.7595C60.673 21.2705 54.2047 24.8524 48.3037 29.579C45.2019 32.0901 42.3271 34.7857 39.7549 37.7768C37.2205 40.7309 34.9888 43.8328 33.1353 47.1931C32.5679 48.1901 31.5465 50.4057 31.5087 50.7381C31.8492 50.4057 41.2301 43.6112 46.715 45.1621C44.4076 46.5653 42.2515 48.1901 40.3601 50.1103C36.9179 53.5445 34.3457 57.5326 32.6057 62.0007C30.3361 67.7982 29.3526 73.5588 29.7309 79.7625C29.7687 80.6488 30.147 84.2676 30.2226 84.5261C30.4496 83.9353 33.4379 75.9591 43.4241 72.0079C43.3106 72.1925 43.235 72.3772 43.1215 72.451C41.7975 73.9281 40.7762 75.5159 39.8306 77.2146C37.9014 80.6488 36.7288 84.3784 36.2749 88.2926C35.7831 92.4653 35.8966 96.5642 36.9179 100.589C37.9771 104.762 42.2136 108.935 42.2136 108.935C42.2136 108.935 41.9489 102.62 42.3271 100.072C42.8567 96.158 43.9915 92.4284 45.5802 88.8096C45.8828 93.6839 48.2659 106.165 48.9846 109.119C50.3464 114.621 52.8807 119.533 56.6634 123.816C60.1056 127.73 64.1909 130.906 68.9192 133.343C73.1558 135.522 82.5746 137.479 82.6881 137.479C65.3635 124.481 81.2507 129.281 84.012 131.017C84.6173 131.386 85.1847 131.755 85.7899 132.088C85.7521 131.792 85.7142 131.497 85.7142 131.202C85.4494 125.663 89.686 120.788 94.9061 119.09C94.3009 117.059 93.3552 114.695 94.1874 112.406C95.7004 108.27 99.1805 105.722 103.001 103.728C105.838 102.251 110.188 101.992 113.29 102.399C115.143 102.657 116.959 103.137 118.775 103.691C124.108 105.353 129.253 107.495 134.284 110.006C135.683 110.707 137.121 111.409 138.558 112.073C141.546 113.44 144.648 113.846 147.901 113.587C149.982 113.44 151.722 112.554 153.159 111.076C153.537 110.633 153.991 110.486 154.521 110.486C155.807 110.486 157.017 110.338 158.266 110.116C160.346 109.747 162.275 109.045 164.053 108.085C164.734 107.716 165.377 107.273 165.982 106.756C165.15 105.907 164.356 105.094 163.75 104.134C163.145 103.211 162.654 102.214 162.427 101.143C162.2 100.035 162.048 98.8906 162.237 97.7459C162.616 97.6351 162.956 97.5982 163.297 97.5243C164.469 97.3397 165.642 97.155 166.814 96.9335C168.101 96.675 169.387 96.3426 170.635 96.0472C170.862 96.0103 171.127 95.9364 171.278 95.678C170.9 95.5303 170.748 95.3456 170.521 95.2349ZM146.766 109.526C146.539 109.562 146.35 109.562 146.123 109.599C143.74 109.858 141.433 109.636 139.163 108.861C137.083 108.196 135.116 107.347 133.111 106.461C130.085 105.094 127.134 103.728 124.146 102.288C123.541 101.992 122.973 101.697 122.406 101.365C121.12 100.663 120.099 99.6661 119.342 98.4475C118.964 97.8197 118.586 97.192 118.245 96.5273C117.526 95.0502 116.883 93.5731 116.165 92.133C116.051 91.9114 115.975 91.7268 116.051 91.4314C116.392 91.3206 116.656 91.4314 116.997 91.5052C120.553 92.0961 123.73 93.4993 126.68 95.5303C128.231 96.6011 129.669 97.8197 131.068 99.0752C133.3 101.032 135.532 102.989 137.991 104.688C139.995 106.054 142.038 107.31 144.308 108.233C145.026 108.565 145.783 108.787 146.502 109.045C146.804 109.156 147.107 109.267 147.599 109.415C147.22 109.526 146.993 109.526 146.766 109.526Z" fill="white"/>
<path d="M171.278 95.6776C171.278 96.6008 162.238 97.8563 162.238 97.8563C154.029 84.5257 139.996 76.2911 126.681 77.1404C124.903 77.2512 123.314 77.1035 121.915 76.7711C120.364 76.6603 118.775 75.7002 117.262 74.5555C112.193 70.752 111.172 64.1422 111.172 64.1422C88.892 74.8509 103.871 54.0981 104.136 53.7288C105.384 53.2487 106.557 52.6949 107.654 51.9563C109.356 50.8854 111.361 47.3774 112.193 45.6049C112.42 45.1249 116.43 42.6877 118.737 41.2845C119.834 40.6198 120.591 39.5489 120.818 38.3303C121.99 32.3113 125.054 14.5126 125.205 13.3678V13.3309C125.205 13.3309 125.205 13.3309 125.205 13.294C125.205 13.294 125.205 13.3309 125.168 13.3309C124.222 14.4756 107.427 34.8592 107.049 35.45C107.124 35.5977 115.824 31.2404 117.224 30.5757C117.3 30.5388 117.451 30.5757 117.602 30.5757C117.565 30.6865 115.862 33.3821 114.047 36.3363C112.155 39.3273 110.113 42.503 109.432 43.3154C108.94 43.9432 108.41 44.6079 107.843 45.2356C107.238 45.9742 106.481 46.565 105.649 47.045C103.493 48.3375 101.375 48.2267 99.2943 46.9343C97.5164 45.8265 96.1925 44.2755 95.209 42.5031C94.4146 40.9891 94.2255 39.4381 94.6038 37.7764C94.982 36.0409 95.8142 34.5269 96.6842 33.0129C97.9703 30.908 99.5212 28.9879 101.148 27.1415C103.985 23.892 107.162 21.0117 110.453 18.2422C113.404 15.7311 129.669 7.68109 129.896 7.57031C129.896 7.75495 127.021 30.2803 126.908 31.3512C126.605 34.6007 127.513 37.5918 129.215 40.3244C130.123 41.7645 131.182 43.0939 132.279 44.3863C133.716 45.9742 135.116 47.599 136.553 49.1499C138.293 51.0331 139.958 52.9903 141.471 55.0212C142.795 56.8306 144.005 58.677 144.762 60.7449C145.329 62.222 145.632 63.8098 145.632 65.3977C145.632 66.3208 145.594 67.2071 145.594 68.1302C145.556 70.3459 146.237 72.3768 147.485 74.2601C148.431 75.6633 149.604 76.8819 150.776 78.1005C154.294 81.6454 158.039 85.0058 161.897 88.2184C164.243 90.1755 170.711 95.2714 171.278 95.6776Z" fill="#DEE8F0"/>
<path d="M138.252 67.6875C137.268 67.429 136.89 67.7613 136.588 68.0567C132.918 66.9489 126.563 64.4379 123.689 59.7851C122.97 58.6035 122.44 57.2741 122.289 55.834C122.289 55.834 124.559 59.1205 128.19 60.0806C129.514 60.4129 131.33 61.6684 133.107 63.1086C135.112 64.6595 137.079 66.5058 138.252 67.6875Z" fill="#242C33"/>
<path d="M141.545 69.2026C141.545 69.2026 141.129 68.6487 137.724 68.8702C134.169 69.0918 134.244 70.4212 130.916 70.5319C128.419 70.6058 126.528 69.3134 125.204 67.2085C123.842 65.1037 122.783 63.8482 122.783 63.8482C122.783 63.8482 124.372 64.476 125.393 65.2514C125.393 65.2514 123.426 61.7064 123.161 60.0078C123.161 60.0078 126.717 62.3711 130.348 63.1835C133.98 64.0328 139.956 66.8023 141.545 69.2026Z" fill="white"/>
<path d="M132.275 64.6233L128.871 63.8848V64.8079L129.06 66.6543L131.33 68.5006L133.41 68.316L135.302 67.3928L135.112 66.4696L133.789 65.7311L132.275 64.6233Z" fill="#71CBFF"/>
<path d="M130.963 64.6133C130.85 65.2182 131.341 66.1633 131.644 66.3523C132.438 66.7682 133.799 66.7304 133.799 66.7304C133.799 66.7304 133.421 65.7474 132.589 65.256C131.719 64.7267 130.963 64.6133 130.963 64.6133Z" fill="white"/>
<path d="M138.895 66.5068C136.89 64.882 134.961 63.8111 133.07 63.0726C131.027 62.2602 129.098 61.7801 127.169 61.3739C125.845 61.0785 124.559 60.3769 123.651 59.7491C122.894 59.2322 122.403 58.7891 122.403 58.7891C122.403 58.7891 124.256 62.6664 126.942 63.368C127.244 64.4019 128.909 69.6455 132.275 69.0178C132.275 69.0178 130.119 70.7533 128.795 70.9749C128.795 70.9749 131.481 71.7134 136.285 68.3162C136.398 68.2423 136.474 68.1315 136.588 68.0208C136.89 67.7253 137.306 67.393 138.252 67.6515C138.29 67.6515 138.29 67.6515 138.328 67.6515C139.16 67.8731 141.429 69.0916 141.543 69.1655C141.505 69.1286 140.711 67.6884 138.895 66.5068ZM130.422 67.4669C128.984 66.4329 129.325 64.1065 129.363 64.1434C130.081 64.2542 131.103 64.6235 132.086 65.0666C131.973 65.1035 131.897 65.1405 131.897 65.1405C132.389 65.4359 132.881 65.9159 132.616 66.1375C132.389 66.3221 131.632 66.1375 131.405 66.0636C131.367 66.0636 131.367 66.0636 131.367 66.0636C131.367 66.0636 131.67 66.6545 132.54 66.876C133.864 67.1714 134.507 66.7283 134.658 66.5806C134.81 66.7283 134.923 66.8391 134.961 66.9499C134.961 66.9499 132.767 69.1286 130.422 67.4669Z" fill="#242C33"/>
<path d="M125.242 13.4041L107.085 35.4863C107.161 35.634 115.861 31.2767 117.261 30.612C117.336 30.5751 117.488 30.612 117.639 30.612C117.601 30.7228 115.899 33.4184 114.083 36.3726C112.003 38.8836 108.939 40.5084 105.572 40.6192C102.622 40.7669 100.012 39.7329 100.995 35.4125C102.924 26.6978 123.767 14.2165 125.242 13.4041C125.204 13.3672 125.204 13.3672 125.242 13.4041C125.242 13.3672 125.204 13.3672 125.242 13.4041C125.28 13.3672 125.28 13.3672 125.28 13.3672L125.242 13.4041Z" fill="white"/>
<path d="M194.691 164.73C193.934 162.957 193.556 160.89 193.556 158.526L193.518 123.187C193.518 120.935 193.858 119.051 194.577 117.685L197.792 111.297H166.169L166.85 112.515C164.959 111.703 162.841 111.297 160.457 111.297H160.42L159.928 111.334L159.625 111.592C157.961 112.959 155.994 113.956 153.951 114.509L153.724 114.583L153.535 114.731C151.039 116.577 148.088 117.574 145.213 117.574C142.301 117.574 139.539 116.688 137.232 115.026L137.043 114.879L136.816 114.842C134.168 114.214 131.634 113.106 129.251 111.592L128.948 111.408H103.377L99.2919 126.806L94.7905 111.408H1.24535L4.46061 117.796C5.14149 119.199 5.51975 121.046 5.51975 123.298L5.48192 158.637C5.48192 161 5.10366 163.068 4.34713 164.841L0.602295 173.555L9.86981 170.786C13.3877 169.752 15.0899 169.235 18.5699 168.312L24.2817 166.798L21.2934 161.813C20.7639 160.89 20.4234 159.265 20.4613 157.271L20.4991 149.073C22.3148 153.615 24.1683 158.157 26.0596 162.588L27.5348 166.059L31.2797 165.21C31.7336 165.099 32.1875 165.025 32.6036 164.915L33.7006 166.909C36.0458 171.192 38.3911 175.549 40.6228 179.907L41.7954 182.196L42.5142 182.049C42.552 182.012 42.552 182.012 42.5898 181.975C49.2095 180.313 96.2658 169.641 157.583 182.159C157.999 182.233 158.453 182.344 158.982 182.455L165.526 183.895L162.841 177.876C161.668 175.291 160.911 173.629 159.966 171.635C161.441 170.38 162.614 169.42 164.618 167.795L167.909 165.136L172.94 166.392C178.274 167.721 183.759 169.198 189.206 170.786L198.398 173.482L194.691 164.73Z" fill="#1C2327"/>
<path d="M41.72 150.365C41.7957 141.133 41.8713 131.902 41.9848 122.67C42.0226 120.233 41.5309 118.091 40.5096 116.355C44.1031 116.355 45.9188 116.355 49.5123 116.355C48.4532 117.98 47.9614 120.048 47.9236 122.522C47.8101 134.339 47.6966 146.155 47.5832 157.972C41.7579 158.932 35.9326 160.077 30.1451 161.369C25.152 149.479 20.4237 137.515 15.9223 125.476C15.8845 136.222 15.8466 147.005 15.8088 157.75C15.8088 160.52 16.2627 162.883 17.2841 164.545C13.7284 165.505 11.9883 165.985 8.47046 167.056C9.49178 164.693 9.94569 162.034 9.94569 159.154C9.94569 147.374 9.9457 135.594 9.98352 123.815C9.98352 120.934 9.49178 118.423 8.47046 116.355C15.0145 116.355 21.5585 116.355 28.0646 116.355C32.4525 127.766 36.9917 139.102 41.72 150.365Z" fill="url(#paint0_linear_3_17532)"/>
<path d="M68.9572 122.116C68.8816 131.2 68.8059 140.321 68.7303 149.405C68.7303 151.62 69.1842 153.541 70.2055 155.018C64.5694 155.572 58.971 156.236 53.3727 157.049C54.4318 155.239 54.9236 153.134 54.9614 150.808C55.0371 141.318 55.1505 131.828 55.2262 122.337C55.264 120.048 54.7723 117.98 53.7509 116.318C59.3115 116.318 64.9098 116.318 70.4703 116.318C69.4868 117.906 68.9951 119.9 68.9572 122.116Z" fill="url(#paint1_linear_3_17532)"/>
<path d="M126.15 154.796C125.091 153.208 124.599 151.288 124.599 148.962C124.523 139.988 124.485 130.978 124.41 122.005C124.41 119.716 124.864 117.832 125.885 116.318H107.35C105.421 122.227 102.962 130.646 100.844 137.404C100.39 138.807 99.9738 140.136 99.5577 141.355C99.1794 140.136 98.7255 138.807 98.2338 137.404C95.9642 130.646 93.0137 122.227 91.0845 116.318H74.8191C75.8404 117.869 76.3322 119.789 76.2943 121.968C76.2565 130.904 76.1809 139.878 76.1052 148.814C76.1052 150.993 75.5756 152.987 74.5543 154.611C78.1857 154.316 80.0014 154.205 83.6327 154.021C82.6114 152.617 82.1196 150.771 82.1196 148.482C82.1575 140.764 82.1953 133.046 82.2331 125.365C84.2379 131.68 86.2806 137.957 88.3232 144.272C89.3445 147.411 90.3658 150.586 91.3872 153.725C95.3211 153.614 97.2881 153.614 101.26 153.614C104.4 144.198 107.539 134.745 110.641 125.292C110.679 132.935 110.679 140.579 110.717 148.26C110.717 150.402 110.225 152.285 109.203 153.762C114.877 154.058 120.514 154.353 126.15 154.796Z" fill="url(#paint2_linear_3_17532)"/>
<path d="M169.99 146.044C169.99 143.533 169.46 141.613 168.477 140.283C167.077 138.289 164.732 137.661 161.327 137.329C166.169 137.92 170.557 135.741 169.838 130.276C169.838 128.467 169.801 127.58 169.801 125.808C169.99 119.715 166.169 116.281 160.155 116.355H157.62C153.989 118.053 150.131 118.829 145.97 118.681C141.771 118.681 137.762 117.832 134.055 116.355H130.915C131.974 117.943 132.466 119.937 132.466 122.152C132.541 131.31 132.617 140.468 132.693 149.626C132.693 151.841 132.239 153.798 131.218 155.276C141.052 156.346 150.812 157.787 160.533 159.633C165.905 160.815 170.784 158.414 169.99 152.284C170.028 149.773 170.028 148.518 169.99 146.044ZM146.235 123.075C149.374 123.149 150.963 123.186 154.103 123.297C156.07 123.371 156.599 124.516 156.637 127.95C156.675 133.119 156.032 133.71 153.838 133.563C150.85 133.341 149.336 133.267 146.348 133.083C146.31 129.058 146.273 127.063 146.235 123.075ZM153.27 151.361C150.547 150.955 149.223 150.77 146.499 150.438C146.462 146.893 146.424 142.979 146.386 139.397C149.299 139.766 150.774 140.062 153.497 140.431C156.637 140.874 156.75 141.65 156.788 144.161C156.788 144.788 156.788 145.121 156.788 145.748C156.864 152.026 156.183 151.804 153.27 151.361Z" fill="url(#paint3_linear_3_17532)"/>
<path d="M188.981 123.815C188.981 135.594 188.981 147.374 189.019 159.154C189.019 162.034 189.51 164.693 190.494 167.056C185.047 165.468 179.562 163.991 174.039 162.588C175.061 160.963 175.514 158.711 175.514 156.052C175.439 145.122 175.401 134.228 175.325 123.298C175.325 120.639 174.796 118.239 173.774 116.393C179.335 116.393 184.933 116.393 190.494 116.393C189.435 118.387 188.943 120.935 188.981 123.815Z" fill="url(#paint4_linear_3_17532)"/>
<path d="M58.3996 161.703C57.7565 166.577 57.1513 171.452 56.6596 176.363C55.2222 176.585 54.4656 176.695 53.0282 176.954C51.4395 173.52 50.6073 171.821 48.9429 168.387C48.716 167.944 48.5268 167.427 48.4134 166.873H48.3755C48.4512 167.538 48.4512 168.055 48.4134 168.498C48.0729 172.264 47.9216 174.147 47.6568 177.914C46.1438 178.209 45.3872 178.357 43.912 178.653C41.6424 174.258 39.335 169.901 36.9519 165.58C38.4271 165.248 39.1837 165.1 40.6967 164.805C42.3611 168.35 43.1555 170.122 44.7442 173.667C44.9333 174.037 45.0846 174.554 45.2738 175.218C45.3116 175.218 45.3116 175.218 45.3494 175.218C45.2738 174.701 45.2738 174.147 45.3116 173.52C45.6142 169.605 45.8033 167.648 46.1816 163.734C47.6568 163.476 48.3755 163.328 49.8508 163.069C51.5151 166.651 52.3473 168.461 53.9739 172.08C54.1252 172.412 54.2765 172.892 54.4656 173.557H54.5035C54.4278 173.04 54.4278 172.486 54.4656 171.969C54.6548 168.091 54.7682 166.134 54.9952 162.257C56.3191 161.999 57 161.888 58.3996 161.703Z" fill="url(#paint5_linear_3_17532)"/>
<path d="M69.8222 174.849C67.7418 175.071 65.9639 174.627 64.4508 173.483C62.9378 172.338 62.0299 170.713 61.7652 168.608C61.4625 166.393 61.8786 164.473 63.0891 162.922C64.2995 161.371 66.0774 160.448 68.4226 160.189C70.6166 159.967 72.4701 160.448 73.9453 161.666C75.4206 162.885 76.2149 164.546 76.4041 166.725C76.5932 168.941 76.0636 170.787 74.8532 172.301C73.6427 173.778 71.9783 174.627 69.8222 174.849ZM68.6496 162.959C67.4391 163.106 66.5313 163.623 65.9261 164.546C65.3209 165.47 65.1317 166.614 65.283 167.981C65.4722 169.384 65.9639 170.455 66.7204 171.156C67.5148 171.895 68.4605 172.19 69.5574 172.079C70.6922 171.969 71.5622 171.452 72.1675 170.602C72.7727 169.753 72.9997 168.608 72.8484 167.205C72.697 165.728 72.2431 164.62 71.4866 163.882C70.7679 163.143 69.8222 162.848 68.6496 162.959Z" fill="url(#paint6_linear_3_17532)"/>
<path d="M89.5309 173.187C86.0508 173.335 84.3108 173.408 80.7929 173.63C80.4525 168.903 80.112 164.177 79.7716 159.45C81.1712 159.339 81.8521 159.302 83.2517 159.229C83.4786 163.106 83.7056 166.946 83.9325 170.824C86.1265 170.713 87.2234 170.639 89.4174 170.565C89.4552 171.636 89.4552 172.153 89.5309 173.187Z" fill="url(#paint7_linear_3_17532)"/>
<path d="M101.331 161.37C99.1752 161.37 98.0782 161.37 95.9221 161.407C95.9599 162.81 95.9599 163.512 95.9599 164.915C97.9269 164.878 98.9104 164.878 100.877 164.878C100.877 165.912 100.877 166.429 100.877 167.463C98.9482 167.463 97.9647 167.463 96.0355 167.5C96.0734 169.715 96.0734 170.823 96.1112 173.039C94.7873 173.039 94.1442 173.076 92.8203 173.113C92.7068 168.386 92.5555 163.623 92.442 158.896C95.9977 158.822 97.8134 158.785 101.369 158.785C101.331 159.819 101.331 160.336 101.331 161.37Z" fill="url(#paint8_linear_3_17532)"/>
<path d="M108.482 168.202C108.406 170.159 108.406 171.156 108.331 173.113C107.007 173.076 106.364 173.076 105.04 173.039C105.116 168.312 105.229 163.549 105.305 158.822C107.499 158.859 108.558 158.896 110.752 158.97C114.648 159.118 116.501 160.742 116.312 163.77C116.237 165.211 115.631 166.318 114.497 167.131C113.362 167.943 111.924 168.349 110.109 168.276C109.428 168.239 109.125 168.239 108.482 168.202ZM108.671 161.37C108.633 163.143 108.596 164.029 108.52 165.801C109.05 165.801 109.314 165.838 109.844 165.838C111.66 165.912 112.605 165.211 112.643 163.697C112.719 162.22 111.811 161.481 109.995 161.407C109.503 161.37 109.239 161.37 108.671 161.37Z" fill="url(#paint9_linear_3_17532)"/>
<path d="M130.838 174.701C129.4 174.553 128.682 174.479 127.244 174.332C126.942 173.039 126.828 172.375 126.525 171.082C124.407 170.898 123.386 170.787 121.268 170.639C120.738 171.858 120.511 172.485 119.981 173.704C118.544 173.593 117.825 173.556 116.426 173.482C118.506 168.83 120.662 164.251 122.894 159.672C124.558 159.783 125.353 159.856 127.017 160.004C128.341 164.879 129.627 169.753 130.838 174.701ZM125.958 168.534C125.504 166.577 125.277 165.58 124.785 163.623C124.71 163.254 124.634 162.811 124.634 162.331C124.596 162.331 124.596 162.331 124.558 162.331C124.483 162.737 124.369 163.143 124.18 163.549C123.348 165.432 122.932 166.356 122.138 168.239C123.688 168.35 124.445 168.424 125.958 168.534Z" fill="url(#paint10_linear_3_17532)"/>
<path d="M144.152 175.956C143.018 176.288 141.58 176.325 139.878 176.067C137.646 175.734 135.982 174.885 134.847 173.445C133.712 172.005 133.296 170.232 133.523 168.127C133.788 165.875 134.771 164.139 136.474 162.921C138.176 161.702 140.218 161.259 142.639 161.628C144.152 161.85 145.363 162.219 146.346 162.736C146.157 163.955 146.044 164.545 145.855 165.764C144.947 165.026 143.812 164.582 142.526 164.398C141.089 164.176 139.878 164.435 138.895 165.173C137.911 165.875 137.306 166.946 137.117 168.386C136.928 169.752 137.192 170.897 137.873 171.82C138.554 172.743 139.575 173.297 140.937 173.482C142.223 173.666 143.472 173.556 144.644 173.112C144.455 174.22 144.342 174.811 144.152 175.956Z" fill="url(#paint11_linear_3_17532)"/>
<path d="M159.926 179.464C158.3 179.095 157.468 178.947 155.841 178.615C154.668 175.845 154.063 174.479 152.815 171.709C152.739 171.562 152.664 171.303 152.588 170.86C152.55 170.86 152.55 170.86 152.55 170.86C152.021 173.593 151.756 174.959 151.226 177.692C149.94 177.433 149.259 177.322 147.973 177.101C148.805 172.448 149.675 167.758 150.508 163.105C151.869 163.327 152.588 163.475 153.95 163.733C153.42 166.392 153.193 167.684 152.664 170.343C152.701 170.343 152.701 170.343 152.701 170.343C152.815 170.158 153.004 169.937 153.269 169.642C155.387 167.611 156.446 166.614 158.602 164.619C160.229 164.952 161.061 165.136 162.688 165.469C159.964 167.647 158.64 168.755 156.03 171.008C157.619 174.368 158.413 176.067 159.926 179.464Z" fill="url(#paint12_linear_3_17532)"/>
<path d="M36.3864 137.404C31.1663 138.29 26.2489 139.25 21.6718 140.321C19.7427 135.373 17.8514 130.424 15.96 125.439C15.96 130.868 15.9222 136.333 15.9222 141.761C13.8796 142.315 11.9126 142.869 10.0212 143.46C10.0212 136.887 10.0212 130.351 10.0212 123.778C10.0212 120.897 9.5295 118.386 8.50818 116.318H28.1024C30.7881 123.408 33.5494 130.424 36.3864 137.404Z" fill="#DCE6F0"/>
<path d="M49.5123 116.355C48.4531 117.98 47.9614 120.048 47.9235 122.522C47.8857 126.917 47.8479 131.311 47.8101 135.742C45.8053 136.001 43.8004 136.296 41.8713 136.554C41.9091 131.939 41.9469 127.323 41.9848 122.67C42.0226 120.233 41.5308 118.091 40.5095 116.355H49.5123Z" fill="#DCE6F0"/>
<path d="M70.5065 116.355C69.4473 117.906 68.9556 119.9 68.9556 122.116C68.9177 125.956 68.8799 129.797 68.8799 133.637C64.1894 133.969 59.5746 134.376 55.1489 134.856C55.1867 130.683 55.2245 126.51 55.2623 122.337C55.3002 120.048 54.8084 117.98 53.7871 116.318H70.5065V116.355Z" fill="#DCE6F0"/>
<path d="M96.608 132.603C92.5605 132.64 88.5887 132.714 84.6548 132.825C83.8604 130.351 83.066 127.877 82.2717 125.403C82.2717 127.914 82.2339 130.388 82.2339 132.899C80.229 132.973 78.2242 133.083 76.2572 133.157C76.2951 129.428 76.2951 125.735 76.3329 122.005C76.3329 119.827 75.879 117.906 74.8577 116.355H91.1231C92.5605 120.897 94.6788 126.953 96.608 132.603Z" fill="#DCE6F0"/>
<path d="M124.372 122.042C124.41 125.809 124.41 129.539 124.447 133.305C119.946 133.047 115.369 132.862 110.679 132.751C110.679 130.314 110.679 127.84 110.641 125.403C109.846 127.84 109.052 130.277 108.22 132.714C106.253 132.677 104.248 132.64 102.281 132.64C104.021 126.991 105.837 120.935 107.312 116.393H125.847C124.863 117.833 124.372 119.753 124.372 122.042Z" fill="#DCE6F0"/>
<path d="M169.876 130.277C169.876 128.468 169.838 127.582 169.838 125.809C170.028 119.679 166.207 116.282 160.193 116.356L155.086 116.319C151.455 118.018 150.131 118.83 145.97 118.682C141.771 118.682 137.761 116.762 134.092 115.285L130.953 116.356C132.012 117.944 132.504 119.938 132.504 122.154C132.541 126.031 132.579 129.945 132.617 133.822C143.36 134.635 153.422 135.853 162.614 137.404C166.964 137.515 170.519 135.263 169.876 130.277ZM153.8 133.564C150.812 133.342 149.45 133.01 146.31 132.678C146.272 128.69 146.235 127.065 146.197 123.077C149.336 123.151 150.925 123.187 154.065 123.298C155.994 123.372 156.561 124.517 156.599 127.951C156.675 133.121 156.032 133.712 153.8 133.564Z" fill="#DCE6F0"/>
<path d="M188.98 123.815C188.98 130.388 188.98 136.924 188.98 143.497C184.819 142.204 180.28 141.023 175.4 139.915C175.362 134.376 175.324 128.837 175.324 123.261C175.324 120.602 174.795 118.202 173.774 116.355H190.493C189.434 118.386 188.942 120.934 188.98 123.815Z" fill="#DCE6F0"/>
<path d="M126.678 77.1401C113.363 77.9894 111.169 64.1419 111.169 64.1419C88.7003 74.9614 104.134 53.7285 104.134 53.7285C99.6322 55.0579 83.745 55.021 82.3076 65.9882C81.778 69.9025 84.6529 73.4474 88.6246 73.9644C90.7808 74.2598 95.5091 74.1121 95.5091 74.1121C95.5091 74.1121 72.2457 82.5683 84.6529 111.408H90.4025C90.4025 111.408 75.1584 87.1473 110.11 71.8965V71.8596C110.564 79.4665 122.706 84.4516 122.706 84.4516C134.433 76.9924 162.008 97.7452 162.008 97.7452C153.8 84.3777 139.993 76.2908 126.678 77.1401Z" fill="white"/>
<path d="M71.1854 70.4937C71.1854 70.4937 54.5795 82.9011 57.9082 95.2715C57.9082 95.2715 54.5795 85.3013 57.6435 73.7432C57.6435 73.7432 62.7879 51.8456 88.6991 39.1797C88.6991 39.1797 67.781 36.5949 55.6008 48.6699C55.563 48.6699 59.1565 39.1059 75.4976 30.502C75.4976 30.502 55.2982 31.7575 38.8815 64.8069C38.8815 64.8069 51.2886 51.9933 67.8945 47.8575C67.8945 47.8575 48.9433 61.5205 44.5555 83.5657C44.5555 83.5657 48.0733 79.43 52.1208 76.5127C52.1208 76.5127 51.2508 97.6349 59.2322 101.992C59.2322 101.992 59.8752 90.0649 67.554 82.421C67.554 82.421 65.2844 95.6777 80.642 111.409C80.6799 111.409 71.9797 95.0869 71.1854 70.4937Z" fill="#BCCFE2"/>
<defs>
<linearGradient id="paint0_linear_3_17532" x1="28.9914" y1="116.355" x2="28.9914" y2="167.056" gradientUnits="userSpaceOnUse">
<stop stop-color="#F1FCFF"/>
<stop offset="1" stop-color="#05A7DE"/>
</linearGradient>
<linearGradient id="paint1_linear_3_17532" x1="61.9215" y1="116.318" x2="61.9215" y2="157.049" gradientUnits="userSpaceOnUse">
<stop stop-color="#F1FCFF"/>
<stop offset="1" stop-color="#05A7DE"/>
</linearGradient>
<linearGradient id="paint2_linear_3_17532" x1="100.352" y1="116.318" x2="100.352" y2="154.796" gradientUnits="userSpaceOnUse">
<stop stop-color="#F1FCFF"/>
<stop offset="1" stop-color="#05A7DE"/>
</linearGradient>
<linearGradient id="paint3_linear_3_17532" x1="150.495" y1="116.354" x2="150.495" y2="159.925" gradientUnits="userSpaceOnUse">
<stop stop-color="#F1FCFF"/>
<stop offset="1" stop-color="#05A7DE"/>
</linearGradient>
<linearGradient id="paint4_linear_3_17532" x1="182.134" y1="116.393" x2="182.134" y2="167.056" gradientUnits="userSpaceOnUse">
<stop stop-color="#F1FCFF"/>
<stop offset="1" stop-color="#05A7DE"/>
</linearGradient>
<linearGradient id="paint5_linear_3_17532" x1="34.8828" y1="157.942" x2="40.2352" y2="176.845" gradientUnits="userSpaceOnUse">
<stop offset="0.00558659" stop-color="#D9CB00"/>
<stop offset="1" stop-color="#FF8717"/>
</linearGradient>
<linearGradient id="paint6_linear_3_17532" x1="60.2453" y1="156.86" x2="65.8932" y2="172.627" gradientUnits="userSpaceOnUse">
<stop offset="0.00558659" stop-color="#D9CB00"/>
<stop offset="1" stop-color="#FF8717"/>
</linearGradient>
<linearGradient id="paint7_linear_3_17532" x1="78.8301" y1="156.033" x2="85.999" y2="169.592" gradientUnits="userSpaceOnUse">
<stop offset="0.00558659" stop-color="#D9CB00"/>
<stop offset="1" stop-color="#FF8717"/>
</linearGradient>
<linearGradient id="paint8_linear_3_17532" x1="91.5808" y1="155.606" x2="99.0398" y2="168.577" gradientUnits="userSpaceOnUse">
<stop offset="0.00558659" stop-color="#D9CB00"/>
<stop offset="1" stop-color="#FF8717"/>
</linearGradient>
<linearGradient id="paint9_linear_3_17532" x1="103.951" y1="155.651" x2="110.429" y2="169.928" gradientUnits="userSpaceOnUse">
<stop offset="0.00558659" stop-color="#D9CB00"/>
<stop offset="1" stop-color="#FF8717"/>
</linearGradient>
<linearGradient id="paint10_linear_3_17532" x1="115.035" y1="156.337" x2="120.972" y2="172.224" gradientUnits="userSpaceOnUse">
<stop offset="0.00558659" stop-color="#D9CB00"/>
<stop offset="1" stop-color="#FF8717"/>
</linearGradient>
<linearGradient id="paint11_linear_3_17532" x1="132.221" y1="158.232" x2="138.449" y2="173.431" gradientUnits="userSpaceOnUse">
<stop offset="0.00558659" stop-color="#D9CB00"/>
<stop offset="1" stop-color="#FF8717"/>
</linearGradient>
<linearGradient id="paint12_linear_3_17532" x1="146.554" y1="159.476" x2="153.328" y2="176.484" gradientUnits="userSpaceOnUse">
<stop offset="0.00558659" stop-color="#D9CB00"/>
<stop offset="1" stop-color="#FF8717"/>
</linearGradient>
</defs>
</svg>
