<svg width="94" height="93" viewBox="0 0 94 93" fill="none" xmlns="http://www.w3.org/2000/svg">
<path d="M47 92.0328C72.4141 92.0328 93.0164 71.4305 93.0164 46.0164C93.0164 20.6022 72.4141 0 47 0C21.5858 0 0.983582 20.6022 0.983582 46.0164C0.983582 71.4305 21.5858 92.0328 47 92.0328Z" fill="url(#paint0_linear_3_14379)"/>
<path d="M46.9992 90.3929C71.5076 90.3929 91.3756 70.5249 91.3756 46.0165C91.3756 21.5081 71.5076 1.64014 46.9992 1.64014C22.4908 1.64014 2.62281 21.5081 2.62281 46.0165C2.62281 70.5249 22.4908 90.3929 46.9992 90.3929Z" fill="url(#paint1_linear_3_14379)"/>
<path d="M47.0018 81.6151C66.6618 81.6151 82.5994 65.6775 82.5994 46.0175C82.5994 26.3575 66.6618 10.4199 47.0018 10.4199C27.3418 10.4199 11.4042 26.3575 11.4042 46.0175C11.4042 65.6775 27.3418 81.6151 47.0018 81.6151Z" fill="url(#paint2_linear_3_14379)"/>
<path d="M47.0012 80.9393C66.2883 80.9393 81.9236 65.3041 81.9236 46.017C81.9236 26.73 66.2883 11.0947 47.0012 11.0947C27.7142 11.0947 12.079 26.73 12.079 46.017C12.079 65.3041 27.7142 80.9393 47.0012 80.9393Z" fill="url(#paint3_linear_3_14379)"/>
<path d="M47.0021 77.0806C64.158 77.0806 78.0656 63.173 78.0656 46.0171C78.0656 28.8612 64.158 14.9536 47.0021 14.9536C29.8462 14.9536 15.9387 28.8612 15.9387 46.0171C15.9387 63.173 29.8462 77.0806 47.0021 77.0806Z" fill="url(#paint4_linear_3_14379)"/>
<g filter="url(#filter0_d_3_14379)">
<path d="M32.59 43.1778C32.1424 44.2323 31.8161 45.3241 31.6669 46.4626C31.5643 47.2091 31.5177 47.965 31.5923 48.7302C31.6296 49.0941 30.4734 47.8437 30.175 46.6212C29.8859 45.4454 29.8113 44.2509 29.9512 43.0378C30.0817 41.89 30.4174 40.8075 30.9675 39.7996C31.238 39.305 31.5363 38.8384 31.9093 38.4092C31.9373 38.3812 31.9559 38.3345 31.9932 38.2785C31.7788 38.2972 31.6109 38.3905 31.4524 38.4558C31.2846 38.5305 31.1167 38.6145 30.9489 38.6985C30.7811 38.7824 30.6225 38.8758 30.464 38.9784C30.3055 39.0811 30.1563 39.1931 30.0165 39.305C29.8673 39.417 29.7274 39.5383 29.5875 39.669C29.4477 39.7996 29.3265 39.9303 29.2052 40.0796C29.084 40.2196 28.9721 40.3689 28.8602 40.5275C28.7484 40.6768 28.6551 40.8355 28.5525 40.9941C28.4593 41.1527 28.3847 41.3207 28.2728 41.5167C28.2448 41.442 28.2262 41.414 28.2262 41.386C28.1982 41.1247 28.1609 40.8728 28.1516 40.6115C28.0397 38.8104 28.2915 37.0561 28.9348 35.367C29.429 34.0605 30.1657 32.9034 31.1447 31.8955C31.6855 31.3356 32.2916 30.8597 32.9536 30.4491C33.1122 30.3465 32.5434 30.0105 32.0771 30.0945C31.0328 30.2718 28.7204 31.9795 28.6271 32.0728C28.6458 31.9795 28.9348 31.3263 29.0934 31.037C29.6248 30.0572 30.2589 29.1426 30.9769 28.2841C31.7135 27.4069 32.5247 26.6137 33.4105 25.8858C35.0889 24.514 36.9351 23.4595 38.9865 22.7317C40.1707 22.3117 41.3829 21.9944 42.623 21.7891C43.8352 21.5838 45.066 21.5185 46.2968 21.5185C46.5672 21.5185 46.8283 21.5185 47.0894 21.5185C47.108 21.5745 43.7512 25.018 43.7046 24.99C42.8095 24.3927 41.8211 24.1688 40.7581 24.2154C39.6392 24.2621 38.5576 24.4954 37.5039 24.8873C36.7953 25.1486 36.1053 25.4659 35.4526 25.8485C35.4153 25.8672 35.378 25.8952 35.3407 25.9232C35.3313 25.9325 35.322 25.9511 35.2941 25.9885C35.6297 25.9045 35.9374 25.8205 36.2638 25.7645C36.5901 25.6992 36.9165 25.6619 37.2428 25.6339C37.5692 25.6059 37.9049 25.5965 38.2312 25.5965C38.5483 25.5965 38.8746 25.6152 39.1916 25.6525C39.518 25.6899 39.8443 25.7552 40.1614 25.8205C40.4784 25.8858 40.7954 25.9698 41.1497 26.1191C41.0379 26.1565 39.6392 26.6044 39.0145 26.9123C38.2219 27.3043 37.4853 27.7895 36.7953 28.3401C36.0959 28.9 35.4712 29.5346 34.9024 30.2158C34.2124 31.0277 33.6343 31.9142 33.1121 32.8381C33.308 32.6701 34.0259 32.6048 35.0982 31.7276C36.1332 30.8784 37.2801 30.1971 38.5203 29.6746C39.6858 29.1893 40.898 28.8627 42.1475 28.7134C42.9027 28.6201 43.658 28.6014 44.4133 28.6481C44.4412 28.6481 44.4599 28.6574 44.4879 28.6667C44.4972 28.732 44.4506 28.7414 44.4133 28.76C43.5648 29.1146 42.7815 29.5812 42.0262 30.1132C41.0565 30.7944 40.1614 31.5783 39.3781 32.4648C38.8653 33.0434 38.3804 33.6499 37.9608 34.3032C37.1403 35.5723 36.5435 36.9347 36.1612 38.3905C35.9934 39.0437 35.8442 39.7063 35.7789 40.3782C35.667 41.386 35.6297 42.3845 35.723 43.3924C35.7789 44.0549 35.8908 44.6988 36.0493 45.3427C36.1146 45.6134 36.1892 45.8747 36.2638 46.136C36.3384 46.1266 36.3011 46.08 36.3104 46.0613C36.3197 46.024 36.3104 45.9866 36.3104 45.9586C36.3011 45.52 36.3104 45.0814 36.3757 44.6522C36.5155 43.663 36.758 42.7112 37.1682 41.806C38.0447 39.7716 39.9189 37.7839 39.9096 37.8119C39.8443 38.1945 38.9772 46.1173 44.0123 51.5298C44.1988 50.9698 43.8725 49.878 43.6487 48.8982C43.4249 47.9183 43.313 46.9385 43.3783 45.9306C43.4529 44.7268 43.7233 43.5697 44.1895 42.4592C44.6277 41.4234 45.2152 40.4808 45.9984 39.6783C46.5579 39.1091 47.1826 38.6238 47.9192 38.2972C48.2922 38.1292 48.6838 38.0079 49.0941 37.9612C49.178 37.9519 49.4018 37.9146 49.4018 37.9146C49.4018 37.9146 49.2806 37.8493 49.2433 37.8399C49.0288 37.8026 48.8237 37.7559 48.6092 37.7373C47.1919 37.5973 42.4552 36.3562 44.0496 35.2177C44.7303 34.7324 45.4669 34.3405 46.2409 34.0045C47.0894 33.6406 47.9752 33.37 48.8517 33.0714C49.3645 32.8941 49.868 32.6887 50.3249 32.3808C50.8005 32.0635 51.1828 31.6529 51.4159 31.1303C51.4998 30.9344 51.5557 30.7291 51.6117 30.5238C51.6397 30.4211 53.8309 29.0493 53.9428 28.984C54.036 28.928 54.0826 28.8534 54.092 28.7507C54.1479 28.3494 55.3228 21.1732 55.3228 21.1079C55.2668 21.1639 50.2596 27.4069 50.1571 27.5749C50.1851 27.6122 52.656 26.3431 53.057 26.1471C53.0849 26.1378 53.1222 26.1471 53.1688 26.1471C53.1409 26.2031 51.2294 29.3946 50.8471 29.8705C50.6979 30.0572 50.5487 30.2438 50.3902 30.4304C50.213 30.6451 49.9986 30.8224 49.7655 30.9624C49.1501 31.3356 48.544 31.3076 47.9565 30.925C47.453 30.5984 47.0707 30.1505 46.791 29.6279C46.5672 29.1893 46.5206 28.732 46.6231 28.2468C46.735 27.7429 46.9682 27.2949 47.2199 26.8563C47.5836 26.2404 48.0218 25.6805 48.488 25.1393C49.2992 24.1968 50.2037 23.3569 51.1361 22.545C51.9753 21.8171 56.6375 18.5603 56.7028 18.523C56.7028 18.579 55.8449 26.0631 55.817 26.3711C55.7237 27.3229 55.9848 28.1908 56.4697 28.9933C56.7214 29.4133 57.0198 29.8052 57.3368 30.1785C57.7378 30.6451 58.1387 31.1117 58.549 31.5689C59.0432 32.1195 59.5187 32.6887 59.9477 33.286C60.3206 33.8086 60.6656 34.3498 60.8801 34.9564C61.0386 35.395 61.1225 35.8522 61.1225 36.3188C61.1225 36.5895 61.1132 36.8508 61.1132 37.1214C61.1039 37.7746 61.2997 38.3625 61.654 38.9131C61.9244 39.3237 62.2601 39.6783 62.5958 40.0329C63.5935 41.0688 64.6565 42.0486 65.7567 42.9911C66.4094 43.551 67.0715 44.1109 67.7335 44.6615C67.8827 44.7828 68.0412 44.8948 68.1997 45.0161C68.2557 45.0535 68.3023 45.1094 68.3489 45.1561C68.3023 45.2401 68.2277 45.2588 68.1624 45.2681C67.7988 45.3614 67.4351 45.4547 67.0715 45.5294C66.7451 45.5947 66.4094 45.6414 66.0738 45.6973C65.9805 45.716 65.8873 45.7347 65.7754 45.7627C65.7288 46.0986 65.7661 46.4252 65.8313 46.7519C65.8966 47.0691 66.0365 47.3584 66.2043 47.629C66.3721 47.909 66.6052 48.1423 66.8384 48.3943C66.6612 48.5529 66.484 48.6835 66.2882 48.7862C65.7754 49.0755 65.2252 49.2808 64.6378 49.3834C64.2835 49.4488 63.9385 49.4954 63.5748 49.4954C63.4163 49.4954 63.2951 49.5421 63.1832 49.6727C62.7823 50.1113 62.2787 50.3633 61.6913 50.4099C60.7682 50.4939 59.8824 50.3726 59.0339 49.9713C58.6236 49.7754 58.2133 49.5701 57.8124 49.3648C56.3857 48.6369 54.9218 48.0117 53.402 47.5264C52.8891 47.3678 52.3763 47.2278 51.8448 47.1531C50.959 47.0318 50.0825 47.0785 49.2713 47.5077C48.1803 48.0863 47.5369 48.9915 47.425 50.2326C47.3971 50.5406 47.453 50.8392 47.5276 51.1285C47.6302 51.5391 47.798 51.9217 48.0218 52.2763C48.488 53.0509 49.0848 53.7321 49.7655 54.32C51.4345 55.7478 56.0407 57.5861 56.1153 57.6235C56.0314 57.6515 55.9848 57.6795 55.9382 57.6888C55.2016 57.7821 54.4743 57.9127 53.7376 57.9687C52.6374 58.0621 51.5278 58.0434 50.4275 57.9221C48.9915 57.7634 47.6022 57.4368 46.2688 56.9049C45.3084 56.5223 44.3853 56.0557 43.5181 55.4958C42.7349 54.9919 38.2126 53.5828 43.1452 57.3808C43.1731 57.3995 40.4411 56.8209 39.2289 56.177C37.8862 55.4678 36.7207 54.5439 35.7416 53.3961C34.6693 52.1457 33.942 50.7086 33.5597 49.1035C33.3546 48.2449 33.2707 47.3864 33.2707 46.5092C33.28 45.744 33.1494 41.8806 32.59 43.1778ZM52.6933 43.915C52.6747 43.999 52.7026 44.0549 52.7306 44.1203C52.9264 44.5495 53.1129 44.9788 53.318 45.4081C53.4113 45.604 53.5138 45.7813 53.6257 45.968C53.8402 46.3226 54.1293 46.6119 54.4929 46.8172C54.6514 46.9105 54.8193 47.0038 54.9871 47.0878C55.8356 47.4984 56.6841 47.8997 57.542 48.3009C58.1108 48.5622 58.6795 48.8049 59.267 49.0008C59.9104 49.2248 60.5631 49.2901 61.2437 49.2155C61.309 49.2061 61.365 49.2061 61.4302 49.1968C61.4955 49.1875 61.5608 49.1968 61.6633 49.1595C61.5328 49.1128 61.4396 49.0755 61.3556 49.0475C61.1505 48.9728 60.936 48.9075 60.7309 48.8142C60.0875 48.5436 59.5001 48.1796 58.9313 47.7784C58.232 47.2838 57.5979 46.7145 56.9639 46.1453C56.5629 45.7813 56.1526 45.4267 55.7144 45.1094C54.8845 44.5122 53.9707 44.1109 52.9637 43.9336C52.8705 43.915 52.7865 43.887 52.6933 43.915ZM58.9033 37.9333C58.6422 37.4667 58.2879 37.0934 57.8497 36.7854C57.2995 36.4028 56.6935 36.1229 56.0687 35.8896C55.7517 35.7776 55.4253 35.6749 55.0897 35.619C55.0524 35.6096 55.0151 35.619 54.9498 35.619C54.9871 35.6843 54.9964 35.7216 55.0244 35.7589C55.444 36.4028 55.8543 37.0467 56.2739 37.6906C56.3485 37.8119 56.451 37.8773 56.5816 37.9333C56.824 38.0359 57.0571 38.1386 57.2902 38.2505C57.9802 38.5958 59.0618 38.2225 58.9033 37.9333Z" fill="#FDF193"/>
<path d="M69.6587 22.9608C63.5569 16.8582 55.4339 13.4951 46.8009 13.4951C38.1678 13.4951 30.0542 16.8582 23.943 22.9608C17.8413 29.0634 14.4788 37.1876 14.4788 45.8125C14.4788 54.4374 17.8413 62.5616 23.943 68.6736C30.0448 74.7762 38.1678 78.1393 46.8009 78.1393C55.4339 78.1393 63.5475 74.7762 69.6587 68.6736C75.7604 62.571 79.1229 54.4468 79.1229 45.8125C79.1229 37.1781 75.7604 29.0634 69.6587 22.9608ZM20.401 58.1405L22.7624 53.8894L26.7105 50.2997L24.557 56.629L24.2831 54.6641L20.401 58.1405ZM24.0847 62.2026L24.6514 57.1013L25.6999 57.9043L30.4604 54.5602L24.0847 62.2026ZM35.5136 63.5251L32.2077 68.9098L32.7745 64.6587L35.5136 58.9907V63.5251ZM41.9743 70.5913L39.6601 72.7074L42.8999 62.2026L43.58 65.405L41.9743 70.5913ZM48.8316 67.6817L45.6202 69.8545L43.8256 65.6034L45.8091 67.9651L50.3429 63.5251L53.1765 73.9166L48.8316 67.6817ZM58.9382 71.3659L58.4659 62.2026V60.7856L60.2605 65.0366L60.7328 69.0042L58.9382 71.3659ZM62.6219 69.3821L64.1331 66.3592L61.4884 65.2255L61.8662 61.7303L59.5993 60.1243L64.1331 60.88L63.0941 64.8477H68.478L62.6219 69.3821ZM69.3281 55.8733L69.2053 51.0271L71.85 55.4954L72.0767 61.3524L69.3281 55.8733ZM75.8454 52.189L70.3671 46.6154C70.3104 47.0217 68.478 50.2997 64.9738 50.8287C64.6904 50.8759 64.3693 50.9326 64.0198 50.9515C63.4247 51.49 62.688 51.8112 61.8568 51.8867C61.6301 51.9056 61.394 51.9151 61.1767 51.9151C60.1944 51.9151 59.2687 51.7072 58.4281 51.3105C58.0314 51.1215 57.6158 50.9137 57.1624 50.687C55.6984 49.9407 54.3099 49.3644 52.912 48.911C52.3831 48.741 51.958 48.6371 51.5802 48.5898C51.3535 48.5615 51.1457 48.5426 50.9568 48.5426C50.5129 48.5426 50.154 48.6276 49.8234 48.7976C49.115 49.1661 48.7749 49.6762 48.7088 50.4319C48.6994 50.5642 48.756 50.7909 48.7749 50.8665C48.8411 51.131 48.9544 51.3861 49.115 51.6506C49.4928 52.274 49.9556 52.8881 50.5884 53.3699C54.2249 56.1567 59.9677 57.9043 59.9677 57.9043C59.9677 57.9043 53.1765 62.486 44.3545 57.8287L44.959 59.2741L42.9566 58.9624C42.5315 58.9624 39.6129 58.2633 38.3283 57.5831C36.8076 56.7801 35.4853 55.7221 34.3802 54.4374C33.2656 53.1432 32.4722 51.66 32.0094 50.0257C31.7733 50.1769 31.4993 50.2619 31.2065 50.2619C30.8854 50.2619 30.5831 50.1674 30.2903 49.9596C29.9881 49.7518 29.6953 49.4306 29.3741 48.9771C29.1097 48.6087 28.6374 47.853 28.4296 46.9839C28.4107 46.8894 28.3824 46.7949 28.3635 46.7005L21.0622 50.4886L16.5379 49.5817C16.3867 48.3442 16.3017 47.0878 16.3017 45.8125C16.3017 28.9972 29.9786 15.3183 46.7914 15.3183C50.0878 15.3183 53.2709 15.8474 56.2462 16.8204C56.8696 17.0282 57.4836 17.2455 58.0975 17.4911C69.3281 21.9878 77.2811 32.9932 77.2811 45.8125C77.2811 47.8719 77.0733 49.8746 76.686 51.8206L75.8454 52.189Z" fill="#FDF193"/>
</g>
<defs>
<filter id="filter0_d_3_14379" x="14.4788" y="12.4951" width="64.6441" height="65.644" filterUnits="userSpaceOnUse" color-interpolation-filters="sRGB">
<feFlood flood-opacity="0" result="BackgroundImageFix"/>
<feColorMatrix in="SourceAlpha" type="matrix" values="0 0 0 0 0 0 0 0 0 0 0 0 0 0 0 0 0 0 127 0" result="hardAlpha"/>
<feOffset dy="-1"/>
<feComposite in2="hardAlpha" operator="out"/>
<feColorMatrix type="matrix" values="0 0 0 0 0.34902 0 0 0 0 0.34902 0 0 0 0 0.34902 0 0 0 0.53 0"/>
<feBlend mode="normal" in2="BackgroundImageFix" result="effect1_dropShadow_3_14379"/>
<feBlend mode="normal" in="SourceGraphic" in2="effect1_dropShadow_3_14379" result="shape"/>
</filter>
<linearGradient id="paint0_linear_3_14379" x1="46.9941" y1="88.2421" x2="46.9941" y2="-3.83875" gradientUnits="userSpaceOnUse">
<stop stop-color="#C99B14"/>
<stop offset="0.2137" stop-color="#B78817"/>
<stop offset="0.2223" stop-color="#B98B1B"/>
<stop offset="0.3396" stop-color="#D6B74E"/>
<stop offset="0.4418" stop-color="#EBD774"/>
<stop offset="0.524" stop-color="#F8EA8B"/>
<stop offset="0.5758" stop-color="#FDF193"/>
<stop offset="0.5784" stop-color="#F9EB8A"/>
<stop offset="0.589" stop-color="#ECD66B"/>
<stop offset="0.6011" stop-color="#E1C34F"/>
<stop offset="0.6146" stop-color="#D8B439"/>
<stop offset="0.6305" stop-color="#D1A928"/>
<stop offset="0.6501" stop-color="#CDA11D"/>
<stop offset="0.6776" stop-color="#CA9C16"/>
<stop offset="0.754" stop-color="#C99B14"/>
<stop offset="0.7571" stop-color="#C79814"/>
<stop offset="0.7907" stop-color="#AF7E15"/>
<stop offset="0.8275" stop-color="#9E6A16"/>
<stop offset="0.8692" stop-color="#915B17"/>
<stop offset="0.9192" stop-color="#895317"/>
<stop offset="1" stop-color="#875017"/>
</linearGradient>
<linearGradient id="paint1_linear_3_14379" x1="46.9933" y1="86.6979" x2="46.9933" y2="-2.01387" gradientUnits="userSpaceOnUse">
<stop stop-color="#875017"/>
<stop offset="0.0808151" stop-color="#895317"/>
<stop offset="0.1308" stop-color="#915B17"/>
<stop offset="0.1725" stop-color="#9E6A16"/>
<stop offset="0.2093" stop-color="#AF7E15"/>
<stop offset="0.2429" stop-color="#C79814"/>
<stop offset="0.246" stop-color="#C99B14"/>
<stop offset="0.3224" stop-color="#CA9C16"/>
<stop offset="0.3499" stop-color="#CDA11D"/>
<stop offset="0.3695" stop-color="#D1A928"/>
<stop offset="0.3854" stop-color="#D8B439"/>
<stop offset="0.3989" stop-color="#E1C34F"/>
<stop offset="0.411" stop-color="#ECD66B"/>
<stop offset="0.4216" stop-color="#F9EB8A"/>
<stop offset="0.4242" stop-color="#FDF193"/>
<stop offset="0.476" stop-color="#F8EA8B"/>
<stop offset="0.5582" stop-color="#EBD774"/>
<stop offset="0.6604" stop-color="#D6B74E"/>
<stop offset="0.7777" stop-color="#B98B1B"/>
<stop offset="0.7863" stop-color="#B78817"/>
<stop offset="1" stop-color="#C99B14"/>
</linearGradient>
<linearGradient id="paint2_linear_3_14379" x1="46.9959" y1="79.9401" x2="46.9959" y2="12.3792" gradientUnits="userSpaceOnUse">
<stop stop-color="#C99B14"/>
<stop offset="0.037458" stop-color="#CFA523"/>
<stop offset="0.11" stop-color="#E0C14C"/>
<stop offset="0.2095" stop-color="#FAEC8C"/>
<stop offset="0.2195" stop-color="#FDF193"/>
<stop offset="0.2511" stop-color="#FAEC8B"/>
<stop offset="0.2989" stop-color="#F1DE77"/>
<stop offset="0.357" stop-color="#E3C754"/>
<stop offset="0.4227" stop-color="#D0A725"/>
<stop offset="0.4445" stop-color="#C99B14"/>
<stop offset="0.61" stop-color="#EDD66C"/>
<stop offset="0.6933" stop-color="#FDF193"/>
<stop offset="0.9055" stop-color="#B78817"/>
<stop offset="1" stop-color="#C99B14"/>
</linearGradient>
<linearGradient id="paint3_linear_3_14379" x1="46.9954" y1="14.0301" x2="46.9954" y2="83.8648" gradientUnits="userSpaceOnUse">
<stop stop-color="#875017"/>
<stop offset="0.1072" stop-color="#9D6A17"/>
<stop offset="0.2475" stop-color="#B78817"/>
<stop offset="0.6677" stop-color="#FDF193"/>
<stop offset="0.7431" stop-color="#FCEF90"/>
<stop offset="0.8008" stop-color="#F8E886"/>
<stop offset="0.8526" stop-color="#F1DD76"/>
<stop offset="0.9009" stop-color="#E8CE5F"/>
<stop offset="0.9469" stop-color="#DBB941"/>
<stop offset="0.9905" stop-color="#CDA11D"/>
<stop offset="1" stop-color="#C99B14"/>
</linearGradient>
<linearGradient id="paint4_linear_3_14379" x1="46.9963" y1="74.5287" x2="46.9963" y2="12.3688" gradientUnits="userSpaceOnUse">
<stop stop-color="#875017"/>
<stop offset="0.1072" stop-color="#9D6A17"/>
<stop offset="0.2475" stop-color="#B78817"/>
<stop offset="0.6677" stop-color="#FDF193"/>
<stop offset="0.7431" stop-color="#FCEF90"/>
<stop offset="0.8008" stop-color="#F8E886"/>
<stop offset="0.8526" stop-color="#F1DD76"/>
<stop offset="0.9009" stop-color="#E8CE5F"/>
<stop offset="0.9469" stop-color="#DBB941"/>
<stop offset="0.9905" stop-color="#CDA11D"/>
<stop offset="1" stop-color="#C99B14"/>
</linearGradient>
</defs>
</svg>
