<svg width="24" height="24" viewBox="0 0 24 24" fill="none" xmlns="http://www.w3.org/2000/svg">
<g clip-path="url(#clip0_1375_1047)">
<path d="M22.678 10.645C22.5002 10.645 22.3561 10.7892 22.3561 10.967V13.0329C22.3561 13.4358 23 13.4541 23 13.0329V10.967C23 10.7892 22.8559 10.645 22.678 10.645Z" fill="#A1A7AA"/>
<path d="M21.3447 8.54492C21.1668 8.54492 21.0227 8.68907 21.0227 8.86687V15.1329C21.0227 15.5359 21.6666 15.5542 21.6666 15.1329V8.86687C21.6666 8.68907 21.5225 8.54492 21.3447 8.54492Z" fill="#A1A7AA"/>
<path d="M20.0112 9.24609C19.8333 9.24609 19.6892 9.39024 19.6892 9.56804V14.4318C19.6892 14.8347 20.3331 14.8531 20.3331 14.4318V9.56804C20.3331 9.39024 20.189 9.24609 20.0112 9.24609Z" fill="#A1A7AA"/>
<path d="M18.6778 7.08447C18.4999 7.08447 18.3558 7.22862 18.3558 7.40642V16.5935C18.3558 16.9964 18.9997 17.0147 18.9997 16.5935V7.40642C18.9997 7.22862 18.8556 7.08447 18.6778 7.08447Z" fill="#A1A7AA"/>
<path d="M1.32195 10.645C1.14411 10.645 1 10.7892 1 10.967V13.0329C1 13.4358 1.6439 13.4541 1.6439 13.0329V10.967C1.6439 10.7892 1.4998 10.645 1.32195 10.645Z" fill="#A1A7AA"/>
<path d="M2.65545 8.54492C2.4776 8.54492 2.3335 8.68907 2.3335 8.86687V15.1329C2.3335 15.5359 2.9774 15.5542 2.9774 15.1329V8.86687C2.9774 8.68907 2.83325 8.54492 2.65545 8.54492Z" fill="#A1A7AA"/>
<path d="M3.98882 9.24609C3.81098 9.24609 3.66687 9.39024 3.66687 9.56804V14.4318C3.66687 14.8347 4.31077 14.8531 4.31077 14.4318V9.56804C4.31077 9.39024 4.16667 9.24609 3.98882 9.24609Z" fill="#A1A7AA"/>
<path d="M5.3222 7.08447C5.14435 7.08447 5.00024 7.22862 5.00024 7.40642V16.5935C5.00024 16.9964 5.64415 17.0147 5.64415 16.5935V7.40642C5.64415 7.22862 5.5 7.08447 5.3222 7.08447Z" fill="#A1A7AA"/>
<path d="M17.657 9.64347C17.6628 9.61921 17.6663 9.59402 17.6663 9.56796V6.10321C17.6663 5.70029 17.0224 5.68196 17.0224 6.10321V8.49414C16.8165 8.2007 16.5858 7.92588 16.3328 7.67321V3.2857C16.3328 2.88279 15.6889 2.86446 15.6889 3.2857V7.11362C15.4701 6.94843 15.2397 6.79776 14.9994 6.66267V4.1657C14.9994 3.76279 14.3555 3.74446 14.3555 4.1657V6.34879C14.132 6.25568 13.9019 6.17537 13.666 6.109V2.34131C13.666 1.9384 13.0221 1.92007 13.0221 2.34131V5.96541C12.7892 5.92652 12.552 5.90051 12.3111 5.88879V1.33253C12.3111 0.929622 11.6672 0.911292 11.6672 1.33253V5.89115C11.4336 5.90415 11.2036 5.93038 10.9776 5.96897V2.34131C10.9776 1.9384 10.3337 1.92007 10.3337 2.34131V6.11492C10.0978 6.18223 9.86768 6.26349 9.6442 6.35759V4.1657C9.6442 3.76279 9.0003 3.74446 9.0003 4.1657V6.67473C8.75987 6.8112 8.52961 6.96346 8.31077 7.1301V3.2857C8.31077 2.88279 7.66686 2.86446 7.66686 3.2857V7.6951C7.4136 7.95065 7.18278 8.22843 6.97733 8.52509V6.10321C6.97733 5.70029 6.33343 5.68196 6.33343 6.10321V9.66034C6.33343 9.67682 6.33506 9.69288 6.33746 9.70872C6.05045 10.4168 5.89197 11.1901 5.89197 11.9998C5.89197 12.7906 6.04067 13.5587 6.33343 14.2848V17.8965C6.33343 18.2994 6.97733 18.3177 6.97733 17.8965V14.35C6.97733 13.5627 6.53587 13.2447 6.53587 11.9998C6.53587 8.98115 8.9918 6.52522 12.0105 6.52522C15.0292 6.52522 17.4851 8.98111 17.4851 11.9998C17.4851 15.0186 15.0294 17.4745 12.0107 17.4745C10.6046 17.4745 9.26808 16.9424 8.24749 15.9761C8.04501 15.7843 7.66704 15.9292 7.66704 16.2099V20.714C7.66704 21.1169 8.31094 21.1352 8.31094 20.714V16.8732C8.53132 17.0409 8.76163 17.1928 9.00047 17.3281V19.834C9.00047 20.2369 9.64437 20.2553 9.64437 19.834V17.6441C9.86897 17.7383 10.0992 17.8188 10.3339 17.8855V21.6584C10.3339 22.0613 10.9778 22.0797 10.9778 21.6584V18.0314C11.2048 18.07 11.435 18.0956 11.6673 18.1085V22.6672C11.6673 23.0701 12.3112 23.0884 12.3112 22.6672V18.1109C12.5522 18.0992 12.7893 18.0732 13.0222 18.0343V21.6584C13.0222 22.0613 13.6661 22.0796 13.6661 21.6584V17.8907C13.902 17.8243 14.1322 17.744 14.3557 17.6509V19.834C14.3557 20.2369 14.9996 20.2552 14.9996 19.834V17.337C15.2398 17.2019 15.4702 17.0512 15.6891 16.886V20.714C15.6891 21.1169 16.333 21.1352 16.333 20.714V16.3264C16.5859 16.0738 16.8166 15.799 17.0225 15.5055V17.8965C17.0225 18.2994 17.6665 18.3177 17.6665 17.8965V14.4317C17.6665 14.4056 17.663 14.3804 17.6572 14.3562C17.9611 13.6306 18.1294 12.8345 18.1294 11.9998C18.1294 11.1651 17.961 10.3691 17.657 9.64347Z" fill="#A1A7AA"/>
<path d="M13.1841 9.4846C13.5636 9.34912 13.3642 8.73651 12.9676 8.87821L10.6586 9.70284C10.5317 9.74813 10.4449 9.87193 10.4449 10.006V13.0876C10.2823 13.0036 10.098 12.9559 9.90263 12.9559C9.24859 12.9559 8.71643 13.488 8.71643 14.1421C8.71643 14.7961 9.24855 15.3283 9.90263 15.3283C10.5567 15.3283 11.0888 14.7961 11.0888 14.1421V11.3441L13.9019 10.3394V11.853C13.7392 11.769 13.5549 11.7213 13.3596 11.7213C12.7055 11.7213 12.1734 12.2534 12.1734 12.9075C12.1734 13.5616 12.7055 14.0937 13.3596 14.0937C14.0136 14.0937 14.5458 13.5616 14.5458 12.9075V8.7715C14.5458 8.36859 13.9019 8.35026 13.9019 8.7715V9.65579L11.0888 10.6604V10.233L13.1841 9.4846ZM13.3596 13.4497C13.0606 13.4497 12.8173 13.2064 12.8173 12.9074C12.8173 12.6084 13.0606 12.3651 13.3596 12.3651C13.6586 12.3651 13.9019 12.6084 13.9019 12.9074C13.9019 13.2064 13.6586 13.4497 13.3596 13.4497ZM9.90267 14.6844C9.60364 14.6844 9.36038 14.4411 9.36038 14.1421C9.36038 13.843 9.60364 13.5998 9.90267 13.5998C10.2017 13.5998 10.445 13.843 10.445 14.1421C10.445 14.4411 10.2017 14.6844 9.90267 14.6844Z" fill="#A1A7AA"/>
</g>
<defs>
<clipPath id="clip0_1375_1047">
<rect width="22" height="22" fill="white" transform="translate(1 1)"/>
</clipPath>
</defs>
</svg>
