<svg width="16" height="13" viewBox="0 0 16 13" fill="none" xmlns="http://www.w3.org/2000/svg">
<path d="M0.980933 5.66153C0.980933 5.66153 8.05735 2.80779 10.5116 1.80291C11.4524 1.401 14.6429 0.114756 14.6429 0.114756C14.6429 0.114756 16.1155 -0.447926 15.9927 0.918644C15.9518 1.48138 15.6246 3.45085 15.2974 5.58115C14.8065 8.59571 14.2747 11.8916 14.2747 11.8916C14.2747 11.8916 14.1929 12.8161 13.4976 12.9768C12.8022 13.1376 11.6569 12.4142 11.4524 12.2533C11.2887 12.1328 8.38456 10.324 7.32106 9.43976C7.03472 9.19862 6.70751 8.71632 7.36194 8.15358C8.83451 6.82717 10.5934 5.17923 11.6569 4.13419C12.1477 3.65184 12.6386 2.52642 10.5934 3.89299C7.68921 5.86252 4.82592 7.71144 4.82592 7.71144C4.82592 7.71144 4.17144 8.11336 2.94433 7.75161C1.71716 7.38991 0.285519 6.90755 0.285519 6.90755C0.285519 6.90755 -0.696122 6.30465 0.980933 5.66153Z" fill="white"/>
</svg>
